<?xml version="1.0" encoding="UTF-8"?>
<svg version="1.1" xmlns="http://www.w3.org/2000/svg" width="500" height="500">
<path d="M0 0 C0.98097656 0.01675781 1.96195312 0.03351563 2.97265625 0.05078125 C19.45122462 0.82702606 35.30638409 8.72421569 48 19 C48 19.66 48 20.32 48 21 C48.66 21 49.32 21 50 21 C50 21.66 50 22.32 50 23 C50.598125 23.2475 51.19625 23.495 51.8125 23.75 C54.31626919 25.18072525 55.48072388 26.5691582 57 29 C57 29.66 57 30.32 57 31 C57.66 31 58.32 31 59 31 C65.54253165 38.1096861 68.56661476 48.15243034 72 57 C72.53778076 56.7733667 73.07556152 56.5467334 73.62963867 56.31323242 C83.95374467 51.99215402 93.92613565 47.91968136 105 46 C105.88171875 45.81824219 106.7634375 45.63648438 107.671875 45.44921875 C134.43050862 41.83743135 161.28074101 48.24363335 183.03515625 64.23046875 C188.64835706 68.71639677 194.37427518 73.47298783 199 79 C199 79.66 199 80.32 199 81 C199.66 81 200.32 81 201 81 C211.99406899 94.63264555 219.64745515 111.18862764 222.40429688 128.54541016 C222.77060671 130.82482321 223.1320732 132.85985822 224 135 C226.71643664 136.49826606 226.71643664 136.49826606 230 137 C248.21811531 145.80027604 261.89630797 159.19328735 268.8125 178.45703125 C274.76968991 196.23062089 273.4919882 215.92512586 265.41625977 232.84082031 C256.54793982 250.13946385 241.36555774 262.43881348 223.172822 269.02322769 C211.00284169 272.76982922 198.14485326 272.2873322 185.55493164 272.25878906 C183.52796809 272.26150454 181.50100552 272.26506859 179.4740448 272.26940918 C174.00707394 272.27846976 168.5401792 272.27501506 163.07320714 272.26865101 C157.3280539 272.26355736 151.58290681 272.26829183 145.8377533 272.27142334 C136.19203533 272.27505352 126.54634806 272.27028914 116.90063477 272.26074219 C105.7807192 272.24986258 94.66087702 272.25338349 83.54096323 272.264395 C73.96090161 272.27349865 64.38086196 272.27473805 54.8007974 272.26951766 C49.0934491 272.26641445 43.38613518 272.2659429 37.67878914 272.27259064 C32.30982756 272.2784083 26.94095969 272.27428706 21.57200813 272.26280212 C19.61259109 272.26017889 17.65316604 272.26088014 15.69375229 272.26532745 C-11.70568391 272.32173743 -33.81477893 267.96739494 -54 248 C-59 242.70720721 -59 242.70720721 -59 240 C-59.66 240 -60.32 240 -61 240 C-72.95501691 219.86955915 -77.27217143 198.03106469 -72 175 C-69.46813285 165.6597506 -65.49288088 157.97477197 -60.0859375 150.05859375 C-58.28661687 147.42026407 -56.61131976 144.75566468 -55 142 C-55.47308594 141.61070312 -55.94617188 141.22140625 -56.43359375 140.8203125 C-69.14623999 130.06536422 -78.04370536 117.99531451 -83 102 C-83.5878125 100.1746875 -83.5878125 100.1746875 -84.1875 98.3125 C-88.87527029 77.57650711 -84.74249781 55.15767328 -74 37 C-61.06911509 17.83963768 -44.56474791 6.08766759 -22 1 C-14.73541407 -0.31183323 -7.35381218 -0.18189641 0 0 Z " fill="#3797BF" transform="translate(165,122)"/>
<path d="M0 0 C0.98097656 0.01675781 1.96195312 0.03351563 2.97265625 0.05078125 C19.45122462 0.82702606 35.30638409 8.72421569 48 19 C48 19.66 48 20.32 48 21 C48.66 21 49.32 21 50 21 C50 21.66 50 22.32 50 23 C50.598125 23.2475 51.19625 23.495 51.8125 23.75 C54.31626919 25.18072525 55.48072388 26.5691582 57 29 C57 29.66 57 30.32 57 31 C57.66 31 58.32 31 59 31 C65.54253165 38.1096861 68.56661476 48.15243034 72 57 C72.66 57 73.32 57 74 57 C74 57.66 74 58.32 74 59 C73.34 59 72.68 59 72 59 C72 59.66 72 60.32 72 61 C70.31227413 62.14682599 68.57258781 63.21766316 66.8125 64.25 C63.34910595 66.37071754 60.48100848 68.20373971 58 71.4375 C57.34 72.283125 56.68 73.12875 56 74 C55.01 74 54.02 74 53 74 C52.67 74.99 52.34 75.98 52 77 C51.278125 77.4125 50.55625 77.825 49.8125 78.25 C43.47588235 82.19278432 39.72945668 88.6998821 36 95 C35.443125 95.886875 34.88625 96.77375 34.3125 97.6875 C32.92849826 99.96563572 32.92849826 99.96563572 32.125 102.5 C29.01457232 109.41206152 21.12115218 114.19547183 14.359375 117.15625 C9.78362218 118.30550885 5.38657795 118.25279177 0.6875 118.3125 C-6.63923126 118.52420587 -13.40595072 119.1901122 -20.4375 121.3125 C-21.10370361 121.51335205 -21.76990723 121.7142041 -22.45629883 121.92114258 C-25.80349028 123.0217937 -28.81865277 124.3961696 -31.84765625 126.16796875 C-35 128 -35 128 -37 128 C-37 128.66 -37 129.32 -37 130 C-38.65 130 -40.3 130 -42 130 C-42.07476562 130.75023437 -42.14953125 131.50046875 -42.2265625 132.2734375 C-43.20398177 135.71908727 -44.48673442 136.57797683 -47.375 138.625 C-50.13384721 140.61101053 -52.6690877 142.51870626 -55 145 C-55 144.01 -55 143.02 -55 142 C-56.46263455 140.43475325 -56.46263455 140.43475325 -58.4375 138.9375 C-70.39519026 128.83895593 -78.3662789 116.95428173 -83 102 C-83.5878125 100.1746875 -83.5878125 100.1746875 -84.1875 98.3125 C-88.87527029 77.57650711 -84.74249781 55.15767328 -74 37 C-61.06911509 17.83963768 -44.56474791 6.08766759 -22 1 C-14.73541407 -0.31183323 -7.35381218 -0.18189641 0 0 Z " fill="#FAD15D" transform="translate(165,122)"/>
<path d="M0 0 C5.61320081 4.48592802 11.33911893 9.24251908 15.96484375 14.76953125 C15.96484375 15.42953125 15.96484375 16.08953125 15.96484375 16.76953125 C16.62484375 16.76953125 17.28484375 16.76953125 17.96484375 16.76953125 C28.95891274 30.4021768 36.6122989 46.95815889 39.36914062 64.31494141 C39.73545046 66.59435446 40.09691695 68.62938947 40.96484375 70.76953125 C43.68128039 72.26779731 43.68128039 72.26779731 46.96484375 72.76953125 C65.18295906 81.56980729 78.86115172 94.9628186 85.77734375 114.2265625 C89.41623976 125.08340028 89.17459388 135.41971861 88.96484375 146.76953125 C88.63484375 146.76953125 88.30484375 146.76953125 87.96484375 146.76953125 C87.96484375 140.82953125 87.96484375 134.88953125 87.96484375 128.76953125 C87.30484375 128.76953125 86.64484375 128.76953125 85.96484375 128.76953125 C85.96484375 127.11953125 85.96484375 125.46953125 85.96484375 123.76953125 C85.30484375 123.76953125 84.64484375 123.76953125 83.96484375 123.76953125 C82.47984375 117.82953125 82.47984375 117.82953125 80.96484375 111.76953125 C80.30484375 111.76953125 79.64484375 111.76953125 78.96484375 111.76953125 C77.33984375 110.70703125 77.33984375 110.70703125 75.96484375 108.76953125 C75.98546875 107.65578125 76.00609375 106.54203125 76.02734375 105.39453125 C75.95249815 101.05348654 74.8756544 99.85675466 71.96484375 96.76953125 C71.63484375 96.10953125 71.30484375 95.44953125 70.96484375 94.76953125 C69.97484375 94.43953125 68.98484375 94.10953125 67.96484375 93.76953125 C67.63484375 92.77953125 67.30484375 91.78953125 66.96484375 90.76953125 C63.03831221 86.93431439 60.60345074 85.17228889 54.96484375 84.76953125 C54.96484375 83.77953125 54.96484375 82.78953125 54.96484375 81.76953125 C54.30484375 81.43953125 53.64484375 81.10953125 52.96484375 80.76953125 C52.30484375 80.10953125 51.64484375 79.44953125 50.96484375 78.76953125 C44.95062736 76.56559879 44.95062736 76.56559879 38.96484375 77.76953125 C38.30484375 77.10953125 37.64484375 76.44953125 36.96484375 75.76953125 C37.62484375 74.77953125 38.28484375 73.78953125 38.96484375 72.76953125 C38.30484375 72.76953125 37.64484375 72.76953125 36.96484375 72.76953125 C35.79190486 66.39167605 34.66953537 60.26631563 34.96484375 53.76953125 C33.64484375 53.43953125 32.32484375 53.10953125 30.96484375 52.76953125 C29.63151042 46.76953125 28.29817708 40.76953125 26.96484375 34.76953125 C26.30484375 34.76953125 25.64484375 34.76953125 24.96484375 34.76953125 C24.56265625 33.84140625 24.56265625 33.84140625 24.15234375 32.89453125 C23.00927527 30.47000795 23.00927527 30.47000795 19.96484375 28.76953125 C19.27734375 25.14453125 19.27734375 25.14453125 18.96484375 21.76953125 C17.64484375 21.76953125 16.32484375 21.76953125 14.96484375 21.76953125 C14.96484375 20.77953125 14.96484375 19.78953125 14.96484375 18.76953125 C13.97484375 18.76953125 12.98484375 18.76953125 11.96484375 18.76953125 C11.84109375 18.13015625 11.71734375 17.49078125 11.58984375 16.83203125 C11.38359375 16.15140625 11.17734375 15.47078125 10.96484375 14.76953125 C10.30484375 14.43953125 9.64484375 14.10953125 8.96484375 13.76953125 C8.96484375 13.10953125 8.96484375 12.44953125 8.96484375 11.76953125 C7.97484375 12.09953125 6.98484375 12.42953125 5.96484375 12.76953125 C5.96484375 12.10953125 5.96484375 11.44953125 5.96484375 10.76953125 C5.30484375 10.76953125 4.64484375 10.76953125 3.96484375 10.76953125 C3.96484375 9.11953125 3.96484375 7.46953125 3.96484375 5.76953125 C1.20220086 5.17220306 -1.19548394 4.76953125 -4.03515625 4.76953125 C-4.26203125 3.96515625 -4.48890625 3.16078125 -4.72265625 2.33203125 C-5.15578125 1.48640625 -5.58890625 0.64078125 -6.03515625 -0.23046875 C-8.47579066 -0.90194793 -8.47579066 -0.90194793 -11.03515625 -1.23046875 C-12.66015625 -2.73046875 -12.66015625 -2.73046875 -14.03515625 -4.23046875 C-15.02515625 -4.56046875 -16.01515625 -4.89046875 -17.03515625 -5.23046875 C-17.03515625 -4.57046875 -17.03515625 -3.91046875 -17.03515625 -3.23046875 C-18.02515625 -3.23046875 -19.01515625 -3.23046875 -20.03515625 -3.23046875 C-20.03515625 -4.88046875 -20.03515625 -6.53046875 -20.03515625 -8.23046875 C-20.81890625 -8.18921875 -21.60265625 -8.14796875 -22.41015625 -8.10546875 C-25.03515625 -8.23046875 -25.03515625 -8.23046875 -27.03515625 -10.23046875 C-29.17108607 -10.65401998 -29.17108607 -10.65401998 -31.53515625 -10.79296875 C-35.84596706 -11.13587416 -35.84596706 -11.13587416 -38.03515625 -12.23046875 C-38.36515625 -11.57046875 -38.69515625 -10.91046875 -39.03515625 -10.23046875 C-41.53515625 -11.60546875 -41.53515625 -11.60546875 -44.03515625 -13.23046875 C-44.03515625 -13.89046875 -44.03515625 -14.55046875 -44.03515625 -15.23046875 C-45.02515625 -14.90046875 -46.01515625 -14.57046875 -47.03515625 -14.23046875 C-47.03515625 -14.89046875 -47.03515625 -15.55046875 -47.03515625 -16.23046875 C-47.70289063 -16.06417969 -48.370625 -15.89789063 -49.05859375 -15.7265625 C-53.90284163 -14.91918785 -58.74053958 -15.27038484 -63.63671875 -15.390625 C-67.16361375 -15.51671503 -67.16361375 -15.51671503 -70.03515625 -13.23046875 C-71.02515625 -13.56046875 -72.01515625 -13.89046875 -73.03515625 -14.23046875 C-74.02515625 -13.24046875 -75.01515625 -12.25046875 -76.03515625 -11.23046875 C-76.92203125 -11.62234375 -77.80890625 -12.01421875 -78.72265625 -12.41796875 C-81.98277117 -13.60988566 -81.98277117 -13.60988566 -84.47265625 -11.91796875 C-85.31828125 -11.36109375 -86.16390625 -10.80421875 -87.03515625 -10.23046875 C-88.61296875 -10.01390625 -88.61296875 -10.01390625 -90.22265625 -9.79296875 C-96.25440685 -8.90303833 -102.03077733 -7.23484767 -106.41015625 -2.85546875 C-106.94640625 -1.98921875 -107.48265625 -1.12296875 -108.03515625 -0.23046875 C-108.71578125 0.78015625 -109.39640625 1.79078125 -110.09765625 2.83203125 C-111.05671875 4.28609375 -111.05671875 4.28609375 -112.03515625 5.76953125 C-113.03515625 7.10286458 -114.03515625 8.43619792 -115.03515625 9.76953125 C-118.19774593 13.8737952 -118.19774593 13.8737952 -119.03515625 18.76953125 C-121.41015625 21.33203125 -121.41015625 21.33203125 -124.03515625 23.76953125 C-126.80106961 26.53544461 -126.50889735 28.95415424 -127.03515625 32.76953125 C-127.97265625 34.95703125 -127.97265625 34.95703125 -129.03515625 36.76953125 C-129.34453125 37.42953125 -129.65390625 38.08953125 -129.97265625 38.76953125 C-131.13771022 40.96257402 -132.53720057 42.78918307 -134.03515625 44.76953125 C-134.50695312 45.45273438 -134.97875 46.1359375 -135.46484375 46.83984375 C-138.43879386 51.06767553 -140.20225769 52.88352206 -145.03515625 54.76953125 C-147.541289 57.29663582 -149.80111413 60.0011217 -152.03515625 62.76953125 C-152.66550781 62.57875 -153.29585938 62.38796875 -153.9453125 62.19140625 C-154.63496094 62.0521875 -155.32460937 61.91296875 -156.03515625 61.76953125 C-157.55625556 63.03927023 -157.55625556 63.03927023 -159.03515625 64.76953125 C-161.32679658 66.22276658 -163.60884717 67.55637671 -166.03515625 68.76953125 C-166.03515625 68.10953125 -166.03515625 67.44953125 -166.03515625 66.76953125 C-166.59203125 67.26453125 -167.14890625 67.75953125 -167.72265625 68.26953125 C-170.41678608 70.01707492 -171.88890632 70.03171874 -175.03515625 69.76953125 C-174.54015625 68.28453125 -174.54015625 68.28453125 -174.03515625 66.76953125 C-174.83953125 67.24390625 -175.64390625 67.71828125 -176.47265625 68.20703125 C-180.11889893 69.8062605 -182.82610733 70.2093608 -186.73046875 70.51171875 C-189.033765 70.76937562 -191.06793766 71.2960491 -193.28515625 71.95703125 C-197.36473432 72.84093983 -198.39702003 72.44110735 -202.03515625 70.76953125 C-204.59452184 71.09805207 -204.59452184 71.09805207 -207.03515625 71.76953125 C-208.35515625 71.76953125 -209.67515625 71.76953125 -211.03515625 71.76953125 C-212.60517335 72.01756756 -214.16863814 72.31061 -215.72265625 72.64453125 C-216.51027344 72.80695313 -217.29789063 72.969375 -218.109375 73.13671875 C-219.06263672 73.44996094 -219.06263672 73.44996094 -220.03515625 73.76953125 C-220.36515625 74.42953125 -220.69515625 75.08953125 -221.03515625 75.76953125 C-222.67484375 75.67671875 -222.67484375 75.67671875 -224.34765625 75.58203125 C-227.95641708 75.41355211 -227.95641708 75.41355211 -229.97265625 77.26953125 C-230.32328125 77.76453125 -230.67390625 78.25953125 -231.03515625 78.76953125 C-231.36515625 78.10953125 -231.69515625 77.44953125 -232.03515625 76.76953125 C-232.44765625 77.51203125 -232.86015625 78.25453125 -233.28515625 79.01953125 C-234.98569375 81.69180446 -236.77138281 83.57650073 -239.03515625 85.76953125 C-240.05839061 87.08511828 -241.06642593 88.4133088 -242.03515625 89.76953125 C-242.69515625 89.43953125 -243.35515625 89.10953125 -244.03515625 88.76953125 C-242.66097003 84.27219452 -240.72043228 82.57736061 -237.03515625 79.76953125 C-236.39578125 78.94453125 -235.75640625 78.11953125 -235.09765625 77.26953125 C-233.03515625 74.76953125 -233.03515625 74.76953125 -229.91015625 72.76953125 C-226.79806443 70.60459781 -226.03092342 69.35429306 -225.03515625 65.76953125 C-223.38515625 65.76953125 -221.73515625 65.76953125 -220.03515625 65.76953125 C-220.03515625 65.10953125 -220.03515625 64.44953125 -220.03515625 63.76953125 C-207.85362608 55.61380593 -194.27280198 53.14423351 -179.87426758 53.22167969 C-170.41486037 53.1553897 -162.88718158 50.29526966 -156.03515625 43.76953125 C-155.31328125 43.17140625 -154.59140625 42.57328125 -153.84765625 41.95703125 C-151.68626325 39.34845349 -150.89568095 36.88453078 -149.80859375 33.7109375 C-148.71093052 30.95569192 -146.94819407 29.02016398 -145.03515625 26.76953125 C-144.22940532 25.46563026 -143.43882934 24.15228145 -142.66015625 22.83203125 C-139.74230089 18.0770077 -136.48747132 13.58696961 -131.03515625 11.76953125 C-130.70515625 11.10953125 -130.37515625 10.44953125 -130.03515625 9.76953125 C-129.04515625 9.43953125 -128.05515625 9.10953125 -127.03515625 8.76953125 C-125.98328125 7.43921875 -125.98328125 7.43921875 -124.91015625 6.08203125 C-121.69769059 2.02469695 -117.53664089 -0.73652245 -113.03515625 -3.23046875 C-112.37515625 -3.23046875 -111.71515625 -3.23046875 -111.03515625 -3.23046875 C-111.03515625 -3.89046875 -111.03515625 -4.55046875 -111.03515625 -5.23046875 C-110.37515625 -5.23046875 -109.71515625 -5.23046875 -109.03515625 -5.23046875 C-108.70515625 -6.22046875 -108.37515625 -7.21046875 -108.03515625 -8.23046875 C-74.67476852 -27.04271747 -30.31245669 -22.27594951 0 0 Z " fill="#7596B6" transform="translate(348.03515625,186.23046875)"/>
<path d="M0 0 C-0.90616306 3.98711748 -1.49138422 5.63512346 -4.875 8.0625 C-5.90625 8.701875 -6.9375 9.34125 -8 10 C-9.35156675 11.65191491 -10.68962066 13.31522656 -12 15 C-12.66 15 -13.32 15 -14 15 C-14.0825 15.5775 -14.165 16.155 -14.25 16.75 C-15.21797787 19.6539336 -16.68694284 21.03740604 -19 23 C-19.66 23 -20.32 23 -21 23 C-21.20625 23.86625 -21.4125 24.7325 -21.625 25.625 C-22.92784302 28.82288741 -23.57526163 29.74340747 -26 31.9375 C-28.42649267 34.18446696 -28.95703275 34.83143618 -29.8125 38.1875 C-32.28904965 46.13852782 -39.15570634 52.26948905 -45 58 C-44.01 59.65 -43.02 61.3 -42 63 C-44.86181411 66.16305771 -48.2099782 68.1049891 -52 70 C-52 69.34 -52 68.68 -52 68 C-52.556875 68.495 -53.11375 68.99 -53.6875 69.5 C-56.38162983 71.24754367 -57.85375007 71.26218749 -61 71 C-60.505 69.515 -60.505 69.515 -60 68 C-60.804375 68.474375 -61.60875 68.94875 -62.4375 69.4375 C-66.08374268 71.03672925 -68.79095108 71.43982955 -72.6953125 71.7421875 C-74.99860875 71.99984437 -77.03278141 72.52651785 -79.25 73.1875 C-83.32957807 74.07140858 -84.36186378 73.6715761 -88 72 C-90.55936559 72.32852082 -90.55936559 72.32852082 -93 73 C-94.32 73 -95.64 73 -97 73 C-98.5700171 73.24803631 -100.13348189 73.54107875 -101.6875 73.875 C-102.47511719 74.03742188 -103.26273438 74.19984375 -104.07421875 74.3671875 C-105.02748047 74.68042969 -105.02748047 74.68042969 -106 75 C-106.33 75.66 -106.66 76.32 -107 77 C-108.6396875 76.9071875 -108.6396875 76.9071875 -110.3125 76.8125 C-113.92126083 76.64402086 -113.92126083 76.64402086 -115.9375 78.5 C-116.288125 78.995 -116.63875 79.49 -117 80 C-117.33 79.34 -117.66 78.68 -118 78 C-118.4125 78.7425 -118.825 79.485 -119.25 80.25 C-120.9505375 82.92227321 -122.73622656 84.80696948 -125 87 C-126.02323436 88.31558703 -127.03126968 89.64377755 -128 91 C-128.66 90.67 -129.32 90.34 -130 90 C-128.62581378 85.50266327 -126.68527603 83.80782936 -123 81 C-122.360625 80.175 -121.72125 79.35 -121.0625 78.5 C-119 76 -119 76 -115.875 74 C-112.76290818 71.83506656 -111.99576717 70.58476181 -111 67 C-109.35 67 -107.7 67 -106 67 C-106 66.34 -106 65.68 -106 65 C-93.81846983 56.84427468 -80.23764573 54.37470226 -65.83911133 54.45214844 C-56.37970412 54.38585845 -48.85202533 51.52573841 -42 45 C-41.278125 44.401875 -40.55625 43.80375 -39.8125 43.1875 C-37.651107 40.57892224 -36.8605247 38.11499953 -35.7734375 34.94140625 C-34.67577427 32.18616067 -32.91303782 30.25063273 -31 28 C-30.19424907 26.69609901 -29.40367309 25.3827502 -28.625 24.0625 C-25.70714464 19.30747645 -22.45231507 14.81743836 -17 13 C-16.67 12.34 -16.34 11.68 -16 11 C-15.01 10.67 -14.02 10.34 -13 10 C-11.79073964 8.52927794 -10.58349171 7.0567017 -9.3984375 5.56640625 C-6.93662311 2.80889907 -3.81275634 0 0 0 Z " fill="#93B3DE" transform="translate(234,185)"/>
<path d="M0 0 C5.61320081 4.48592802 11.33911893 9.24251908 15.96484375 14.76953125 C15.96484375 15.42953125 15.96484375 16.08953125 15.96484375 16.76953125 C16.62484375 16.76953125 17.28484375 16.76953125 17.96484375 16.76953125 C28.95891274 30.4021768 36.6122989 46.95815889 39.36914062 64.31494141 C39.73545046 66.59435446 40.09691695 68.62938947 40.96484375 70.76953125 C43.68128039 72.26779731 43.68128039 72.26779731 46.96484375 72.76953125 C65.18295906 81.56980729 78.86115172 94.9628186 85.77734375 114.2265625 C89.41623976 125.08340028 89.17459388 135.41971861 88.96484375 146.76953125 C88.63484375 146.76953125 88.30484375 146.76953125 87.96484375 146.76953125 C87.96484375 140.82953125 87.96484375 134.88953125 87.96484375 128.76953125 C87.30484375 128.76953125 86.64484375 128.76953125 85.96484375 128.76953125 C85.96484375 127.11953125 85.96484375 125.46953125 85.96484375 123.76953125 C85.30484375 123.76953125 84.64484375 123.76953125 83.96484375 123.76953125 C82.97484375 119.80953125 81.98484375 115.84953125 80.96484375 111.76953125 C80.30484375 111.76953125 79.64484375 111.76953125 78.96484375 111.76953125 C77.33984375 110.70703125 77.33984375 110.70703125 75.96484375 108.76953125 C75.98546875 107.65578125 76.00609375 106.54203125 76.02734375 105.39453125 C75.95249815 101.05348654 74.8756544 99.85675466 71.96484375 96.76953125 C71.63484375 96.10953125 71.30484375 95.44953125 70.96484375 94.76953125 C69.97484375 94.43953125 68.98484375 94.10953125 67.96484375 93.76953125 C67.63484375 92.77953125 67.30484375 91.78953125 66.96484375 90.76953125 C63.03831221 86.93431439 60.60345074 85.17228889 54.96484375 84.76953125 C54.96484375 83.77953125 54.96484375 82.78953125 54.96484375 81.76953125 C54.30484375 81.43953125 53.64484375 81.10953125 52.96484375 80.76953125 C52.30484375 80.10953125 51.64484375 79.44953125 50.96484375 78.76953125 C44.95062736 76.56559879 44.95062736 76.56559879 38.96484375 77.76953125 C38.30484375 77.10953125 37.64484375 76.44953125 36.96484375 75.76953125 C37.95484375 74.28453125 37.95484375 74.28453125 38.96484375 72.76953125 C38.30484375 72.76953125 37.64484375 72.76953125 36.96484375 72.76953125 C35.79190486 66.39167605 34.66953537 60.26631563 34.96484375 53.76953125 C32.98484375 53.27453125 32.98484375 53.27453125 30.96484375 52.76953125 C29.63151042 46.76953125 28.29817708 40.76953125 26.96484375 34.76953125 C26.30484375 34.76953125 25.64484375 34.76953125 24.96484375 34.76953125 C24.56265625 33.84140625 24.56265625 33.84140625 24.15234375 32.89453125 C23.00927527 30.47000795 23.00927527 30.47000795 19.96484375 28.76953125 C19.27734375 25.14453125 19.27734375 25.14453125 18.96484375 21.76953125 C17.64484375 21.76953125 16.32484375 21.76953125 14.96484375 21.76953125 C14.96484375 20.77953125 14.96484375 19.78953125 14.96484375 18.76953125 C13.97484375 18.76953125 12.98484375 18.76953125 11.96484375 18.76953125 C11.84109375 18.13015625 11.71734375 17.49078125 11.58984375 16.83203125 C11.28046875 15.81109375 11.28046875 15.81109375 10.96484375 14.76953125 C10.30484375 14.43953125 9.64484375 14.10953125 8.96484375 13.76953125 C8.96484375 13.10953125 8.96484375 12.44953125 8.96484375 11.76953125 C7.47984375 12.26453125 7.47984375 12.26453125 5.96484375 12.76953125 C5.96484375 12.10953125 5.96484375 11.44953125 5.96484375 10.76953125 C5.30484375 10.76953125 4.64484375 10.76953125 3.96484375 10.76953125 C3.96484375 9.11953125 3.96484375 7.46953125 3.96484375 5.76953125 C1.20220086 5.17220306 -1.19548394 4.76953125 -4.03515625 4.76953125 C-4.26203125 3.96515625 -4.48890625 3.16078125 -4.72265625 2.33203125 C-5.15578125 1.48640625 -5.58890625 0.64078125 -6.03515625 -0.23046875 C-8.47579066 -0.90194793 -8.47579066 -0.90194793 -11.03515625 -1.23046875 C-12.66015625 -2.73046875 -12.66015625 -2.73046875 -14.03515625 -4.23046875 C-15.02515625 -4.56046875 -16.01515625 -4.89046875 -17.03515625 -5.23046875 C-17.03515625 -4.57046875 -17.03515625 -3.91046875 -17.03515625 -3.23046875 C-18.02515625 -3.23046875 -19.01515625 -3.23046875 -20.03515625 -3.23046875 C-20.03515625 -4.88046875 -20.03515625 -6.53046875 -20.03515625 -8.23046875 C-20.81890625 -8.18921875 -21.60265625 -8.14796875 -22.41015625 -8.10546875 C-25.03515625 -8.23046875 -25.03515625 -8.23046875 -27.03515625 -10.23046875 C-29.17108607 -10.65401998 -29.17108607 -10.65401998 -31.53515625 -10.79296875 C-35.84596706 -11.13587416 -35.84596706 -11.13587416 -38.03515625 -12.23046875 C-38.36515625 -11.57046875 -38.69515625 -10.91046875 -39.03515625 -10.23046875 C-41.53515625 -11.60546875 -41.53515625 -11.60546875 -44.03515625 -13.23046875 C-44.03515625 -13.89046875 -44.03515625 -14.55046875 -44.03515625 -15.23046875 C-45.02515625 -14.90046875 -46.01515625 -14.57046875 -47.03515625 -14.23046875 C-47.03515625 -14.89046875 -47.03515625 -15.55046875 -47.03515625 -16.23046875 C-48.10056641 -15.98876953 -48.10056641 -15.98876953 -49.1875 -15.7421875 C-52.04672489 -15.22838989 -54.69515799 -15.06315302 -57.59765625 -15.04296875 C-58.99177734 -15.02169922 -58.99177734 -15.02169922 -60.4140625 -15 C-63.03515625 -15.23046875 -63.03515625 -15.23046875 -65.015625 -16.234375 C-67.69972247 -17.55825286 -69.81177836 -17.42626346 -72.78515625 -17.35546875 C-73.77 -17.33742187 -74.75484375 -17.319375 -75.76953125 -17.30078125 C-76.5171875 -17.27757812 -77.26484375 -17.254375 -78.03515625 -17.23046875 C-78.03515625 -17.56046875 -78.03515625 -17.89046875 -78.03515625 -18.23046875 C-51.11354424 -23.85046856 -21.89909753 -16.09315919 0 0 Z " fill="#71B8D6" transform="translate(348.03515625,186.23046875)"/>
<path d="M0 0 C2.34955266 0.28959729 2.34955266 0.28959729 5.51171875 -0.3125 C8.60039344 -0.7385241 10.58752268 -0.72694149 13.60546875 -0.34375 C19.50455792 0.29841569 25.33455748 0.26205549 31.26171875 0.1875 C38.01473158 0.10319272 44.4480291 0.26345148 51.13671875 1.1875 C53.36462381 1.2732857 55.5946692 1.31787889 57.82421875 1.3125 C59.43876953 1.31636719 59.43876953 1.31636719 61.0859375 1.3203125 C63.88520011 1.1984496 66.41377905 0.82403136 69.13671875 0.1875 C69.13671875 0.8475 69.13671875 1.5075 69.13671875 2.1875 C70.06484375 1.8575 70.99296875 1.5275 71.94921875 1.1875 C76.94576748 -0.27239695 81.98005455 0.01965198 87.13671875 0.1875 C87.13671875 0.8475 87.13671875 1.5075 87.13671875 2.1875 C88.18472656 2.1153125 89.23273438 2.043125 90.3125 1.96875 C91.69140265 1.8749471 93.0703091 1.78120001 94.44921875 1.6875 C95.13951172 1.63980469 95.82980469 1.59210938 96.54101562 1.54296875 C104.57337161 0.99971762 104.57337161 0.99971762 108.13671875 2.1875 C108.13671875 1.5275 108.13671875 0.8675 108.13671875 0.1875 C109.06484375 0.208125 109.99296875 0.22875 110.94921875 0.25 C114.15957886 0.34519604 114.15957886 0.34519604 117.13671875 -0.8125 C119.83794981 -0.65238879 122.45547106 -0.20809392 125.13671875 0.1875 C125.13671875 0.8475 125.13671875 1.5075 125.13671875 2.1875 C125.86117187 2.10371094 126.585625 2.01992188 127.33203125 1.93359375 C132.47163695 1.39222195 137.05037817 0.95028202 142.13671875 2.1875 C142.46671875 1.5275 142.79671875 0.8675 143.13671875 0.1875 C146.36586627 0.15832772 149.59497958 0.14064337 152.82421875 0.125 C153.73623047 0.11662109 154.64824219 0.10824219 155.58789062 0.09960938 C156.47412109 0.09638672 157.36035156 0.09316406 158.2734375 0.08984375 C159.08514404 0.08460693 159.89685059 0.07937012 160.7331543 0.07397461 C163.13671875 0.1875 163.13671875 0.1875 165.31567383 0.75610352 C168.84231428 1.29540024 171.96645024 0.85843511 175.49603271 0.45193481 C179.54867271 0.04610879 183.57528483 0.06363855 187.64453125 0.08984375 C188.49602753 0.0912587 189.3475238 0.09267365 190.224823 0.09413147 C192.90382634 0.09966081 195.58274132 0.11219926 198.26171875 0.125 C200.09505086 0.13002416 201.92838431 0.13458545 203.76171875 0.13867188 C208.22008534 0.14960694 212.67838714 0.16682128 217.13671875 0.1875 C217.13671875 1.1775 217.13671875 2.1675 217.13671875 3.1875 C212.26906145 4.15795777 207.53709207 4.33097497 202.59272766 4.32121277 C201.32261134 4.3246111 201.32261134 4.3246111 200.0268361 4.32807809 C197.19666908 4.33439538 194.36655023 4.33359018 191.53637695 4.33276367 C189.50410399 4.33575663 187.47183159 4.33915947 185.43955994 4.34294128 C179.92282062 4.35177278 174.40609683 4.35411908 168.88935113 4.35475707 C165.44020632 4.35546819 161.99106545 4.35760372 158.54192162 4.36025429 C146.50165939 4.36950572 134.46140824 4.37358953 122.42114258 4.37280273 C111.21043333 4.37220237 99.99977226 4.38274657 88.7890752 4.3985464 C79.15488945 4.41163888 69.52071942 4.41698589 59.88652486 4.41634732 C54.13670259 4.41609279 48.38692313 4.41891931 42.63710976 4.42952538 C37.22559409 4.43923478 31.81416188 4.43926605 26.4026432 4.43200874 C24.42219928 4.43096635 22.44175007 4.43330517 20.46131516 4.4393692 C1.2490324 4.49436181 1.2490324 4.49436181 -7.86328125 2.1875 C-7.86328125 1.5275 -7.86328125 0.8675 -7.86328125 0.1875 C-5.09549314 -1.19639406 -2.9672203 -0.42617168 0 0 Z " fill="#7E919B" transform="translate(159.86328125,389.8125)"/>
<path d="M0 0 C-0.90616306 3.98711748 -1.49138422 5.63512346 -4.875 8.0625 C-5.90625 8.701875 -6.9375 9.34125 -8 10 C-9.35156675 11.65191491 -10.68962066 13.31522656 -12 15 C-12.66 15 -13.32 15 -14 15 C-14.0825 15.5775 -14.165 16.155 -14.25 16.75 C-15.21797787 19.6539336 -16.68694284 21.03740604 -19 23 C-19.66 23 -20.32 23 -21 23 C-21.20625 23.86625 -21.4125 24.7325 -21.625 25.625 C-22.92784302 28.82288741 -23.57526163 29.74340747 -26 31.9375 C-28.42649267 34.18446696 -28.95703275 34.83143618 -29.8125 38.1875 C-32.45439228 46.66936468 -39.51266654 53.47934584 -47 58 C-47.86625 58.5775 -48.7325 59.155 -49.625 59.75 C-58.373617 62.99022852 -67.89594725 62.06139968 -77.00390625 61.05859375 C-80.14762375 60.99711296 -81.33073705 61.50385261 -84 63 C-85.98932502 63.03208589 -87.98016618 63.05916451 -89.96875 62.99609375 C-92.23918016 62.9394552 -92.23918016 62.9394552 -95.375 63.625 C-96.24125 63.74875 -97.1075 63.8725 -98 64 C-98.66 63.34 -99.32 62.68 -100 62 C-97.68421645 60.92289137 -95.37196739 59.94402715 -93 59 C-92.14664063 58.65195313 -91.29328125 58.30390625 -90.4140625 57.9453125 C-82.24563421 55.00810863 -74.68286068 54.49275584 -66.04272461 54.50341797 C-56.50288924 54.38140981 -48.91971465 51.59020443 -42 45 C-41.278125 44.401875 -40.55625 43.80375 -39.8125 43.1875 C-37.651107 40.57892224 -36.8605247 38.11499953 -35.7734375 34.94140625 C-34.67577427 32.18616067 -32.91303782 30.25063273 -31 28 C-30.19424907 26.69609901 -29.40367309 25.3827502 -28.625 24.0625 C-25.70714464 19.30747645 -22.45231507 14.81743836 -17 13 C-16.67 12.34 -16.34 11.68 -16 11 C-15.01 10.67 -14.02 10.34 -13 10 C-11.79073964 8.52927794 -10.58349171 7.0567017 -9.3984375 5.56640625 C-6.93662311 2.80889907 -3.81275634 0 0 0 Z " fill="#A898B1" transform="translate(234,185)"/>
<path d="M0 0 C1.32 0.33 2.64 0.66 4 1 C4 1.66 4 2.32 4 3 C3.34 3 2.68 3 2 3 C2 3.66 2 4.32 2 5 C0.31227413 6.14682599 -1.42741219 7.21766316 -3.1875 8.25 C-6.65089405 10.37071754 -9.51899152 12.20373971 -12 15.4375 C-12.99 16.7059375 -12.99 16.7059375 -14 18 C-14.99 18 -15.98 18 -17 18 C-17.495 19.485 -17.495 19.485 -18 21 C-18.721875 21.4125 -19.44375 21.825 -20.1875 22.25 C-26.52411765 26.19278432 -30.27054332 32.6998821 -34 39 C-34.556875 39.886875 -35.11375 40.77375 -35.6875 41.6875 C-37.07150174 43.96563572 -37.07150174 43.96563572 -37.875 46.5 C-40.98542768 53.41206152 -48.87884782 58.19547183 -55.640625 61.15625 C-60.21637782 62.30550885 -64.61342205 62.25279177 -69.3125 62.3125 C-76.63923126 62.52420587 -83.40595072 63.1901122 -90.4375 65.3125 C-91.43680542 65.61377808 -91.43680542 65.61377808 -92.45629883 65.92114258 C-95.81608961 67.02593672 -98.77886881 68.40216158 -101.78515625 70.23046875 C-102.84605469 70.81441406 -103.90695313 71.39835937 -105 72 C-105.99 71.67 -106.98 71.34 -108 71 C-106.71034824 69.62437146 -105.37310707 68.29233607 -104 67 C-103.34 67 -102.68 67 -102 67 C-101.34 66.01 -100.68 65.02 -100 64 C-96.47825471 61.52173479 -93.18473978 61.92250482 -89 62 C-88.01 61.505 -88.01 61.505 -87 61 C-85.39826955 60.84691426 -83.79334895 60.72611793 -82.1875 60.625 C-77.94012572 60.2482658 -75.61292101 59.28184485 -72 57 C-69.324129 56.46079436 -66.72768595 56.23115983 -64 56 C-64 56.33 -64 56.66 -64 57 C-59.29050618 57.22973141 -55.43028188 56.65049717 -51 55 C-50.67 54.01 -50.34 53.02 -50 52 C-47.53205337 49.91943829 -44.94964747 48.04218735 -42.34765625 46.1328125 C-39.82008614 43.83655081 -39.11129509 42.16745945 -38 39 C-37.34 38.67 -36.68 38.34 -36 38 C-34.6250851 35.09740189 -34 33.23861295 -34 30 C-33.01 30 -32.02 30 -31 30 C-30.9071875 29.1646875 -30.9071875 29.1646875 -30.8125 28.3125 C-29.6615012 25.03658033 -27.47935065 23.42425397 -25 21 C-23.46410455 18.88519012 -21.97807426 16.7483052 -20.52734375 14.57421875 C-20.02332031 14.05472656 -19.51929688 13.53523437 -19 13 C-17.68 13 -16.36 13 -15 13 C-15 12.34 -15 11.68 -15 11 C-14.01 11 -13.02 11 -12 11 C-12 10.34 -12 9.68 -12 9 C-5.296875 5.1328125 -5.296875 5.1328125 -2.625 3.9375 C-0.64235617 3.03325133 -0.64235617 3.03325133 0 0 Z " fill="#F6BDA4" transform="translate(235,178)"/>
<path d="M0 0 C-1.32 1.32 -2.64 2.64 -4 4 C-4.99 3.67 -5.98 3.34 -7 3 C-7.99 3.99 -8.98 4.98 -10 6 C-10.886875 5.608125 -11.77375 5.21625 -12.6875 4.8125 C-15.94761492 3.62058309 -15.94761492 3.62058309 -18.4375 5.3125 C-19.283125 5.869375 -20.12875 6.42625 -21 7 C-22.5778125 7.2165625 -22.5778125 7.2165625 -24.1875 7.4375 C-30.2192506 8.32743042 -35.99562108 9.99562108 -40.375 14.375 C-40.91125 15.24125 -41.4475 16.1075 -42 17 C-42.680625 18.010625 -43.36125 19.02125 -44.0625 20.0625 C-44.701875 21.031875 -45.34125 22.00125 -46 23 C-47 24.33333333 -48 25.66666667 -49 27 C-52.16258968 31.10426395 -52.16258968 31.10426395 -53 36 C-55.5 37.6875 -55.5 37.6875 -58 39 C-58.41176754 35.39703406 -58.1535853 34.21597933 -56 31.1875 C-55.34 30.465625 -54.68 29.74375 -54 29 C-56.30099489 31.14230559 -58.01742088 33.02948149 -59.625 35.75 C-60.305625 36.86375 -60.305625 36.86375 -61 38 C-61.66 38 -62.32 38 -63 38 C-62.67 35.69 -62.34 33.38 -62 31 C-61.34 31 -60.68 31 -60 31 C-59.7525 30.4225 -59.505 29.845 -59.25 29.25 C-57.17445909 25.51402637 -55.06826056 23.35608685 -51 22 C-50.690625 21.030625 -50.38125 20.06125 -50.0625 19.0625 C-49 16 -49 16 -46.875 14.625 C-46.25625 14.41875 -45.6375 14.2125 -45 14 C-45 13.34 -45 12.68 -45 12 C-44.34 12 -43.68 12 -43 12 C-42.67 11.01 -42.34 10.02 -42 9 C-30.39140711 2.80013954 -13.20532517 -4.29335695 0 0 Z " fill="#679CBD" transform="translate(282,169)"/>
<path d="M0 0 C0.33 0.99 0.66 1.98 1 3 C1.99 3 2.98 3 4 3 C2.43632643 6.52238047 0.30504111 9.27123994 -2.125 12.25 C-2.84945312 13.14203125 -3.57390625 14.0340625 -4.3203125 14.953125 C-4.87460938 15.62859375 -5.42890625 16.3040625 -6 17 C-5.34 17.33 -4.68 17.66 -4 18 C-4.7884223 22.59913007 -5.63430605 26.63430605 -9 30 C-9.28875 30.86625 -9.5775 31.7325 -9.875 32.625 C-10.76428405 35.29285214 -11.70410008 37.76487791 -12.875 40.3125 C-13.18179688 40.98925781 -13.48859375 41.66601562 -13.8046875 42.36328125 C-15 44 -15 44 -17.1328125 44.73046875 C-17.74898438 44.81941406 -18.36515625 44.90835938 -19 45 C-20.2656487 29.42548966 -13.06024815 14.57531019 -3.515625 2.64453125 C-2 1 -2 1 0 0 Z " fill="#EE9843" transform="translate(100,149)"/>
<path d="M0 0 C0 0.99 0 1.98 0 3 C-1.96875 4.60546875 -1.96875 4.60546875 -4.5 6.1875 C-5.3353125 6.71730469 -6.170625 7.24710938 -7.03125 7.79296875 C-8.00578125 8.39044922 -8.00578125 8.39044922 -9 9 C-9 8.34 -9 7.68 -9 7 C-9.556875 7.495 -10.11375 7.99 -10.6875 8.5 C-13.38162983 10.24754367 -14.85375007 10.26218749 -18 10 C-17.67 9.01 -17.34 8.02 -17 7 C-17.804375 7.474375 -18.60875 7.94875 -19.4375 8.4375 C-23.08374268 10.03672925 -25.79095108 10.43982955 -29.6953125 10.7421875 C-31.99860875 10.99984437 -34.03278141 11.52651785 -36.25 12.1875 C-40.32957807 13.07140858 -41.36186378 12.6715761 -45 11 C-47.55936559 11.32852082 -47.55936559 11.32852082 -50 12 C-51.32 12 -52.64 12 -54 12 C-55.41904676 12.14501208 -56.83607595 12.31147679 -58.25 12.5 C-60.10625 12.7475 -60.10625 12.7475 -62 13 C-60.49441303 9.8151045 -59.67670491 8.17907876 -57 6 C-52.34314244 4.94244267 -47.76000379 4.97499998 -43 5 C-41.8759375 4.97550781 -40.751875 4.95101562 -39.59375 4.92578125 C-31.95983187 4.80295831 -31.95983187 4.80295831 -28.48828125 5.515625 C-20.79858817 7.01251973 -14.49960713 5.13644475 -8.015625 1.078125 C-5.28480551 -0.38254589 -3.03347442 -0.38890698 0 0 Z " fill="#6DAED8" transform="translate(191,246)"/>
<path d="M0 0 C3.1875 0.3125 3.1875 0.3125 6 1 C4.48505598 5.24184326 1.77742755 6.74807204 -2 9 C-2.845625 9.556875 -3.69125 10.11375 -4.5625 10.6875 C-13.3026662 14.02465437 -22.8770442 13.06348095 -32.00390625 12.05859375 C-35.14762375 11.99711296 -36.33073705 12.50385261 -39 14 C-40.98672119 14.03204389 -42.97474135 14.05969828 -44.9609375 14.00390625 C-47.70915907 13.99864146 -50.31144608 14.46228922 -53 15 C-49.82794702 12.27782953 -47.04848875 11.26895547 -43 10.3125 C-41.96875 10.06113281 -40.9375 9.80976563 -39.875 9.55078125 C-37 9 -37 9 -33 9 C-33 8.34 -33 7.68 -33 7 C-32.06317383 6.97812622 -32.06317383 6.97812622 -31.10742188 6.95581055 C-28.23770448 6.88066898 -25.36906763 6.78423065 -22.5 6.6875 C-21.02660156 6.65366211 -21.02660156 6.65366211 -19.5234375 6.61914062 C-9.66670452 6.31964714 -9.66670452 6.31964714 -1.48242188 1.37768555 C-0.99322266 0.92304932 -0.50402344 0.46841309 0 0 Z " fill="#A4B6DF" transform="translate(189,234)"/>
<path d="M0 0 C0.33 0.99 0.66 1.98 1 3 C0.34 3.66 -0.32 4.32 -1 5 C-1.34541851 7.33157492 -1.67794257 9.66508361 -2 12 C-2.9375 14.1875 -2.9375 14.1875 -4 16 C-4.309375 16.66 -4.61875 17.32 -4.9375 18 C-6.10255397 20.19304277 -7.50204432 22.01965182 -9 24 C-9.47179687 24.68320313 -9.94359375 25.36640625 -10.4296875 26.0703125 C-13.40363761 30.29814428 -15.16710144 32.11399081 -20 34 C-22.50613275 36.52710457 -24.76595788 39.23159045 -27 42 C-27.99 41.67 -28.98 41.34 -30 41 C-27.0912388 35.29882805 -23.64378683 31.36266072 -19 27 C-18.071875 26.071875 -17.14375 25.14375 -16.1875 24.1875 C-14.79166667 22.79166667 -13.39583333 21.39583333 -12 20 C-11.32920487 18.33499066 -10.66348783 16.66793469 -10 15 C-8.6975911 12.55798332 -7.37436294 10.15015557 -6 7.75 C-5.64421875 7.11320313 -5.2884375 6.47640625 -4.921875 5.8203125 C-2.24237351 1.12118676 -2.24237351 1.12118676 0 0 Z " fill="#5594B7" transform="translate(223,207)"/>
<path d="M0 0 C0.495 1.485 0.495 1.485 1 3 C0.319375 3.556875 0.319375 3.556875 -0.375 4.125 C-2.20031442 5.94875678 -2.20031442 5.94875678 -2.6875 8.6875 C-6.2683977 17.72500373 -16.41310301 24.11471328 -25 28 C-28.90234375 28.21875 -28.90234375 28.21875 -32 28 C-31 26 -31 26 -29.15234375 25.3671875 C-28.05599609 25.12355469 -28.05599609 25.12355469 -26.9375 24.875 C-26.20402344 24.70742188 -25.47054688 24.53984375 -24.71484375 24.3671875 C-24.14894531 24.24601562 -23.58304687 24.12484375 -23 24 C-22.9071875 22.9171875 -22.9071875 22.9171875 -22.8125 21.8125 C-21.72522305 18.04884902 -20.00824387 16.46129044 -17 14 C-16.113125 13.835 -15.22625 13.67 -14.3125 13.5 C-13.549375 13.335 -12.78625 13.17 -12 13 C-10.77227173 10.76740335 -10.77227173 10.76740335 -10 8 C-8.5625 4.75 -8.5625 4.75 -7 2 C-4 1 -4 1 -1 2 C-0.67 1.34 -0.34 0.68 0 0 Z " fill="#2B5069" transform="translate(423,359)"/>
<path d="M0 0 C0.33 0.99 0.66 1.98 1 3 C1.66 3.33 2.32 3.66 3 4 C2.59007813 4.49628906 2.18015625 4.99257813 1.7578125 5.50390625 C-1.76054568 9.93973103 -3.84356739 13.44912349 -5 19 C-5.33 18.34 -5.66 17.68 -6 17 C-8.50358872 17.48207356 -8.50358872 17.48207356 -11 19 C-12.26258366 22.37719196 -12.26258366 22.37719196 -13 26 C-13.62469505 27.35350594 -14.2716331 28.69934483 -15 30 C-15.66 29.67 -16.32 29.34 -17 29 C-17.12375 29.680625 -17.2475 30.36125 -17.375 31.0625 C-19.35135135 40.35135135 -19.35135135 40.35135135 -22 43 C-22.84092363 32.44173669 -19.83694701 23.38934259 -14.34375 14.42578125 C-12.66201208 12.6413791 -11.34075229 12.57362309 -9 12 C-7.6296945 10.02514795 -6.29327628 8.02613283 -5 6 C-4.34 6 -3.68 6 -3 6 C-2.690625 5.195625 -2.38125 4.39125 -2.0625 3.5625 C-1 1 -1 1 0 0 Z " fill="#5B727C" transform="translate(116,262)"/>
<path d="M0 0 C0 4.07010553 -1.6151386 5.75393865 -4 9 C-4.721875 9.70125 -5.44375 10.4025 -6.1875 11.125 C-8.21877883 13.22632293 -8.35143083 14.22922009 -9 17 C-10.22348009 19.58134701 -11.48067175 22.10153594 -12.8125 24.625 C-13.15603516 25.305625 -13.49957031 25.98625 -13.85351562 26.6875 C-15.77413143 30.33414764 -17.07671994 32.55323729 -21 34 C-21.495 34.99 -21.495 34.99 -22 36 C-22.61875 36.144375 -23.2375 36.28875 -23.875 36.4375 C-26.06659508 36.81246299 -26.06659508 36.81246299 -27.3125 38.4375 C-32.5304569 43.26894158 -40.84966654 42.23644025 -47.4375 42.125 C-48.45521484 42.11597656 -49.47292969 42.10695312 -50.52148438 42.09765625 C-53.01457156 42.07424698 -55.50715859 42.041457 -58 42 C-58 42.66 -58 43.32 -58 44 C-60.91355841 44.86627405 -63.83004328 45.71831006 -66.75 46.5625 C-67.9875 46.9327832 -67.9875 46.9327832 -69.25 47.31054688 C-70.04921875 47.53935547 -70.8484375 47.76816406 -71.671875 48.00390625 C-72.4050293 48.21861572 -73.13818359 48.4333252 -73.89355469 48.65454102 C-76.23869816 49.03914672 -77.75825808 48.72878764 -80 48 C-77.68421645 46.92289137 -75.37196739 45.94402715 -73 45 C-72.14664063 44.65195313 -71.29328125 44.30390625 -70.4140625 43.9453125 C-62.24563421 41.00810863 -54.68286068 40.49275584 -46.04272461 40.50341797 C-36.50288924 40.38140981 -28.91971465 37.59020443 -22 31 C-21.278125 30.401875 -20.55625 29.80375 -19.8125 29.1875 C-17.651107 26.57892224 -16.8605247 24.11499953 -15.7734375 20.94140625 C-14.67577427 18.18616067 -12.91303782 16.25063273 -11 14 C-10.19424907 12.69609901 -9.40367309 11.3827502 -8.625 10.0625 C-6.20900209 6.0960486 -3.39418786 3.15738406 0 0 Z " fill="#CB9BA7" transform="translate(214,199)"/>
<path d="M0 0 C0.33 0 0.66 0 1 0 C1 1.65 1 3.3 1 5 C1.66 5 2.32 5 3 5 C3.64969604 23.3963932 2.49423301 38.13865406 -8 54 C-9.62186854 55.71029179 -11.27816352 57.390393 -13 59 C-12.25 54.25 -12.25 54.25 -10 52 C-9.48195477 50.09860322 -9.03267788 48.17807658 -8.625 46.25 C-7.47572671 41.35537926 -5.95568897 38.09982663 -3 34 C-1.4482776 29.71429051 -0.88581855 27.31745311 -2 23 C-1.125 19.9375 -1.125 19.9375 0 17 C1.22062677 14.17318015 1.22062677 14.17318015 0.5625 11.875 C-0.21365357 7.90799289 -0.07900139 4.0290709 0 0 Z " fill="#5293B4" transform="translate(433,310)"/>
<path d="M0 0 C0.66 0 1.32 0 2 0 C0.7227146 8.79907723 -3.24211601 14.2341189 -8.66015625 21.10546875 C-10.18202399 23.06341585 -10.18202399 23.06341585 -11 26 C-13.21484375 28.0078125 -13.21484375 28.0078125 -15.9375 30.125 C-16.83339844 30.82882813 -17.72929687 31.53265625 -18.65234375 32.2578125 C-21 34 -21 34 -23 35 C-21.73505131 31.0901586 -19.85903601 28.66181688 -17.15625 25.60546875 C-15.72871294 23.81705304 -15.72871294 23.81705304 -15 20.4375 C-13.80906168 16.34364952 -12.04875516 14.90003539 -9 12 C-7.98377342 10.00819591 -6.98287008 8.00847365 -6 6 C-3.9375 3.625 -3.9375 3.625 -2 2 C-1.34 2 -0.68 2 0 2 C0 1.34 0 0.68 0 0 Z " fill="#8996B4" transform="translate(219,202)"/>
<path d="M0 0 C2.31 0 4.62 0 7 0 C6.67 1.98 6.34 3.96 6 6 C8.475 6.495 8.475 6.495 11 7 C11 7.99 11 8.98 11 10 C9.35 10 7.7 10 6 10 C5.92523438 10.75023437 5.85046875 11.50046875 5.7734375 12.2734375 C4.79601823 15.71908727 3.51326558 16.57797683 0.625 18.625 C-2.13384721 20.61101053 -4.6690877 22.51870626 -7 25 C-7 24.01 -7 23.02 -7 22 C-8.59414291 20.26299349 -8.59414291 20.26299349 -10.6875 18.625 C-11.41195312 18.01269531 -12.13640625 17.40039062 -12.8828125 16.76953125 C-13.58148438 16.18558594 -14.28015625 15.60164063 -15 15 C-16.89787847 13.38901014 -18.38803579 11.92395728 -20 10 C-19.8125 7.6875 -19.8125 7.6875 -19 6 C-17.35 6.33 -15.7 6.66 -14 7 C-14 8.98 -14 10.96 -14 13 C-13.1028125 13.433125 -13.1028125 13.433125 -12.1875 13.875 C-10 15 -10 15 -7 17 C-6.67 16.34 -6.34 15.68 -6 15 C-5.401875 15.185625 -4.80375 15.37125 -4.1875 15.5625 C-1.83591238 16.22093687 -1.83591238 16.22093687 1 15 C1.33 14.175 1.66 13.35 2 12.5 C2.33 11.675 2.66 10.85 3 10 C3.99 9.67 4.98 9.34 6 9 C6 8.34 6 7.68 6 7 C5.34 7 4.68 7 4 7 C4 6.01 4 5.02 4 4 C3.01 4.33 2.02 4.66 1 5 C0.67 3.35 0.34 1.7 0 0 Z " fill="#DA9756" transform="translate(117,242)"/>
<path d="M0 0 C1.32 0.33 2.64 0.66 4 1 C4 1.66 4 2.32 4 3 C3.34 3 2.68 3 2 3 C2 3.66 2 4.32 2 5 C0.31227413 6.14682599 -1.42741219 7.21766316 -3.1875 8.25 C-6.65089405 10.37071754 -9.51899152 12.20373971 -12 15.4375 C-12.66 16.283125 -13.32 17.12875 -14 18 C-14.99 18 -15.98 18 -17 18 C-17.33 18.99 -17.66 19.98 -18 21 C-18.721875 21.4125 -19.44375 21.825 -20.1875 22.25 C-24.8741209 25.16611967 -27.96469272 29.44703908 -31 34 C-31.99 33.67 -32.98 33.34 -34 33 C-34 32.01 -34 31.02 -34 30 C-33.01 30 -32.02 30 -31 30 C-30.938125 29.443125 -30.87625 28.88625 -30.8125 28.3125 C-29.6615012 25.03658033 -27.47935065 23.42425397 -25 21 C-23.46410455 18.88519012 -21.97807426 16.7483052 -20.52734375 14.57421875 C-20.02332031 14.05472656 -19.51929688 13.53523437 -19 13 C-17.68 13 -16.36 13 -15 13 C-15 12.34 -15 11.68 -15 11 C-14.01 11 -13.02 11 -12 11 C-12 10.34 -12 9.68 -12 9 C-5.296875 5.1328125 -5.296875 5.1328125 -2.625 3.9375 C-0.64235617 3.03325133 -0.64235617 3.03325133 0 0 Z " fill="#F8C9A0" transform="translate(235,178)"/>
<path d="M0 0 C-1.8372315 4.04190931 -3.57392878 7.12652091 -7 10 C-7.66 10 -8.32 10 -9 10 C-9 10.99 -9 11.98 -9 13 C-10.093125 12.938125 -11.18625 12.87625 -12.3125 12.8125 C-15.92126083 12.64402086 -15.92126083 12.64402086 -17.9375 14.5 C-18.288125 14.995 -18.63875 15.49 -19 16 C-19.33 15.34 -19.66 14.68 -20 14 C-20.4125 14.7425 -20.825 15.485 -21.25 16.25 C-22.9505375 18.92227321 -24.73622656 20.80696948 -27 23 C-28.02323436 24.31558703 -29.03126968 25.64377755 -30 27 C-30.66 26.67 -31.32 26.34 -32 26 C-30.62581378 21.50266327 -28.68527603 19.80782936 -25 17 C-24.360625 16.175 -23.72125 15.35 -23.0625 14.5 C-21 12 -21 12 -17.875 10 C-14.76290818 7.83506656 -13.99576717 6.58476181 -13 3 C-11.35 3 -9.7 3 -8 3 C-8 2.34 -8 1.68 -8 1 C-4.93251126 -0.86240388 -3.40254489 -1.2151946 0 0 Z " fill="#7999C3" transform="translate(136,249)"/>
<path d="M0 0 C0 0.99 0 1.98 0 3 C-1.02996094 3.15855469 -2.05992187 3.31710938 -3.12109375 3.48046875 C-10.90901932 4.73417532 -18.54251249 6.24512618 -26.125 8.4375 C-26.81005615 8.63045654 -27.4951123 8.82341309 -28.20092773 9.0222168 C-31.70192251 10.07350094 -34.67722035 11.31652318 -37.8046875 13.22265625 C-39.38636719 14.10244141 -39.38636719 14.10244141 -41 15 C-41.99 14.67 -42.98 14.34 -44 14 C-42.71034824 12.62437146 -41.37310707 11.29233607 -40 10 C-39.34 10 -38.68 10 -38 10 C-37.34 9.01 -36.68 8.02 -36 7 C-32.47825471 4.52173479 -29.18473978 4.92250482 -25 5 C-24.34 4.67 -23.68 4.34 -23 4 C-21.39826955 3.84691426 -19.79334895 3.72611793 -18.1875 3.625 C-13.97446157 3.25023905 -11.54461613 2.36307742 -8 0 C-2.56 -1.28 -2.56 -1.28 0 0 Z " fill="#FACCA9" transform="translate(171,235)"/>
<path d="M0 0 C0.66 0.33 1.32 0.66 2 1 C2 1.99 2 2.98 2 4 C1.31292969 4.26554688 0.62585938 4.53109375 -0.08203125 4.8046875 C-0.98308594 5.15789062 -1.88414062 5.51109375 -2.8125 5.875 C-3.70582031 6.22304687 -4.59914062 6.57109375 -5.51953125 6.9296875 C-8.17711591 7.98832155 -8.17711591 7.98832155 -11 10 C-16.62427694 11.04489798 -22.0931702 11.17961867 -27.7421875 10.2578125 C-32.79347526 9.68102186 -37.92315532 9.93034817 -43 10 C-43 9.34 -43 8.68 -43 8 C-42.19481934 8.00636475 -41.38963867 8.01272949 -40.56005859 8.01928711 C-20.5188262 8.49933395 -20.5188262 8.49933395 -2.23828125 1.3984375 C-1.49964844 0.93695313 -0.76101562 0.47546875 0 0 Z " fill="#7FB1DA" transform="translate(187,242)"/>
<path d="M0 0 C-1.32 1.32 -2.64 2.64 -4 4 C-4.99 3.67 -5.98 3.34 -7 3 C-7.99 3.99 -8.98 4.98 -10 6 C-10.886875 5.608125 -11.77375 5.21625 -12.6875 4.8125 C-15.94761492 3.62058309 -15.94761492 3.62058309 -18.4375 5.3125 C-19.7059375 6.1478125 -19.7059375 6.1478125 -21 7 C-23.3260857 7.38063221 -25.66055264 7.71269945 -28 8 C-30.01416562 8.62256028 -32.02015519 9.27566653 -34 10 C-32.1875 8 -32.1875 8 -30 6 C-29.01 6 -28.02 6 -27 6 C-27 5.34 -27 4.68 -27 4 C-25.02 3.67 -23.04 3.34 -21 3 C-21 2.34 -21 1.68 -21 1 C-17.61328536 -0.12890488 -14.62237188 -0.36351938 -11.0625 -0.625 C-9.83660156 -0.72039062 -8.61070312 -0.81578125 -7.34765625 -0.9140625 C-4.56409508 -0.98551915 -2.60567869 -0.87509009 0 0 Z " fill="#63AAC8" transform="translate(282,169)"/>
<path d="M0 0 C1.52959351 -0.0009668 1.52959351 -0.0009668 3.09008789 -0.00195312 C10.54890643 0.05017745 17.62820358 0.61621171 24.9375 2.1875 C24.2775 2.5175 23.6175 2.8475 22.9375 3.1875 C22.9375 3.8475 22.9375 4.5075 22.9375 5.1875 C19.9675 5.1875 16.9975 5.1875 13.9375 5.1875 C13.9375 4.5275 13.9375 3.8675 13.9375 3.1875 C12.87208984 3.42919922 12.87208984 3.42919922 11.78515625 3.67578125 C8.92593136 4.18957886 6.27749826 4.35481573 3.375 4.375 C1.98087891 4.39626953 1.98087891 4.39626953 0.55859375 4.41796875 C-2.0625 4.1875 -2.0625 4.1875 -4.04296875 3.18359375 C-6.72706622 1.85971589 -8.83912211 1.99170529 -11.8125 2.0625 C-12.79734375 2.08054688 -13.7821875 2.09859375 -14.796875 2.1171875 C-15.54453125 2.14039063 -16.2921875 2.16359375 -17.0625 2.1875 C-17.0625 1.8575 -17.0625 1.5275 -17.0625 1.1875 C-11.37798762 -0.01480803 -5.78239836 -0.0037472 0 0 Z " fill="#85BDD4" transform="translate(287.0625,166.8125)"/>
<path d="M0 0 C-0.90616306 3.98711748 -1.49138422 5.63512346 -4.875 8.0625 C-5.90625 8.701875 -6.9375 9.34125 -8 10 C-9.35156675 11.65191491 -10.68962066 13.31522656 -12 15 C-12.66 15 -13.32 15 -14 15 C-14.061875 15.5775 -14.12375 16.155 -14.1875 16.75 C-15.32027301 19.88690987 -17.34197595 21.09167504 -20 23 C-20.96846689 20.38513938 -21.04559628 19.1557873 -20.25 16.4375 C-18.35063345 12.73373524 -16.96842901 11.32280967 -13 10 C-11.79073964 8.52927794 -10.58349171 7.0567017 -9.3984375 5.56640625 C-6.93662311 2.80889907 -3.81275634 0 0 0 Z " fill="#B0A3BD" transform="translate(234,185)"/>
<path d="M0 0 C0.61875 0.33 1.2375 0.66 1.875 1 C3.91018344 2.14193235 3.91018344 2.14193235 6 2 C6.18451025 12.55808656 6.18451025 12.55808656 5 17 C5.66 17 6.32 17 7 17 C7.33 19.64 7.66 22.28 8 25 C6.68 24.67 5.36 24.34 4 24 C1.38822878 15.9081731 -0.71240023 8.58838053 0 0 Z " fill="#DD9045" transform="translate(80,206)"/>
<path d="M0 0 C0.33 0.99 0.66 1.98 1 3 C0.54625 3.37125 0.0925 3.7425 -0.375 4.125 C-2.20031442 5.94875678 -2.20031442 5.94875678 -2.6875 8.6875 C-4.61657571 13.55611964 -8.1883425 16.50745801 -12 20 C-12.66 19.67 -13.32 19.34 -14 19 C-14 17 -14 17 -12 15 C-11.87625 14.29875 -11.7525 13.5975 -11.625 12.875 C-10.77366647 8.95886578 -9.25470308 5.32763076 -7 2 C-4 1 -4 1 -1 2 C-0.67 1.34 -0.34 0.68 0 0 Z " fill="#427085" transform="translate(423,359)"/>
<path d="M0 0 C3 1 3 1 4.53515625 4.02734375 C5.05941647 5.32471125 5.56765297 6.62863117 6.0625 7.9375 C6.32562988 8.62553711 6.58875977 9.31357422 6.85986328 10.02246094 C11.2335267 21.74970679 11.22916108 32.59983936 11 45 C10.67 45 10.34 45 10 45 C10 39.06 10 33.12 10 27 C9.34 27 8.68 27 8 27 C8 25.35 8 23.7 8 22 C7.34 22 6.68 22 6 22 C5.01 18.04 4.02 14.08 3 10 C2.34 10 1.68 10 1 10 C0.22157062 6.59437148 -0.09978121 3.49234244 0 0 Z " fill="#83BDD6" transform="translate(426,288)"/>
<path d="M0 0 C0 3 0 3 -1.0625 4.5625 C-6.97126271 8.94642072 -14.44954811 8.24320869 -21.4375 8.125 C-22.45521484 8.11597656 -23.47292969 8.10695312 -24.52148438 8.09765625 C-27.01457156 8.07424698 -29.50715859 8.041457 -32 8 C-32 8.66 -32 9.32 -32 10 C-34.91355841 10.86627405 -37.83004328 11.71831006 -40.75 12.5625 C-41.575 12.80935547 -42.4 13.05621094 -43.25 13.31054688 C-44.04921875 13.53935547 -44.8484375 13.76816406 -45.671875 14.00390625 C-46.4050293 14.21861572 -47.13818359 14.4333252 -47.89355469 14.65454102 C-50.23869816 15.03914672 -51.75825808 14.72878764 -54 14 C-51.68421645 12.92289137 -49.37196739 11.94402715 -47 11 C-46.14664063 10.65195313 -45.29328125 10.30390625 -44.4140625 9.9453125 C-36.24563421 7.00810863 -28.68286068 6.49275584 -20.04272461 6.50341797 C-12.86628389 6.41163606 -5.27947331 5.27947331 0 0 Z " fill="#D3BECB" transform="translate(188,233)"/>
<path d="M0 0 C-3.42750634 3.42750634 -6.9436429 4.8898709 -11.72607422 5.14599609 C-14.80633818 5.07202145 -17.86396384 4.90308633 -20.9375 4.6875 C-22.00291016 4.62626953 -23.06832031 4.56503906 -24.16601562 4.50195312 C-26.77863921 4.34964771 -29.38930165 4.18194907 -32 4 C-30.68 3.67 -29.36 3.34 -28 3 C-28 2.34 -28 1.68 -28 1 C-24.45843821 0.83105465 -20.91673593 0.66525124 -17.375 0.5 C-16.37597656 0.45230469 -15.37695312 0.40460938 -14.34765625 0.35546875 C-9.5608033 0.13356166 -4.79365172 -0.06544234 0 0 Z " fill="#BBB9DA" transform="translate(184,240)"/>
<path d="M0 0 C0.33 0 0.66 0 1 0 C1.57689982 14.4011288 1.57689982 14.4011288 -2 19 C-4.109375 19.640625 -4.109375 19.640625 -6 20 C-6.05437607 18.41705218 -6.09296271 16.83355744 -6.125 15.25 C-6.14820312 14.36828125 -6.17140625 13.4865625 -6.1953125 12.578125 C-5.99139502 9.8864142 -5.36551721 8.30095026 -4 6 C-3.34 6 -2.68 6 -2 6 C-1.855625 5.195625 -1.71125 4.39125 -1.5625 3.5625 C-1 1 -1 1 0 0 Z " fill="#E48738" transform="translate(87,174)"/>
<path d="M0 0 C0.66 0.33 1.32 0.66 2 1 C1.319375 1.680625 0.63875 2.36125 -0.0625 3.0625 C-0.51496094 3.51753906 -0.96742187 3.97257813 -1.43359375 4.44140625 C-2.54059434 5.54288564 -3.65895658 6.63300206 -4.78515625 7.71484375 C-7.46814354 10.31808195 -9.75428248 12.59047081 -11.6875 15.8125 C-13.17699809 18.29499682 -14.33143853 18.98778703 -17 20 C-17 19.01 -17 18.02 -17 17 C-17.66 16.67 -18.32 16.34 -19 16 C-13.16265237 9.78195579 -7.15532137 4.64573058 0 0 Z " fill="#F2B160" transform="translate(117,133)"/>
<path d="M0 0 C0.99 0.33 1.98 0.66 3 1 C2.979375 2.03125 2.95875 3.0625 2.9375 4.125 C2.99276661 7.55152969 3.34550715 10.64572414 4 14 C5.65 14.33 7.3 14.66 9 15 C9 17.97 9 20.94 9 24 C7.68 23.67 6.36 23.34 5 23 C0.85624103 15.77023106 -0.83817698 8.25138669 0 0 Z " fill="#4F6571" transform="translate(94,330)"/>
<path d="M0 0 C0.33 0 0.66 0 1 0 C1 1.65 1 3.3 1 5 C1.66 5 2.32 5 3 5 C3.05869332 8.49992803 3.09382709 11.9997272 3.125 15.5 C3.14175781 16.48226563 3.15851563 17.46453125 3.17578125 18.4765625 C3.21499874 24.35918665 2.70432638 29.36364503 1 35 C0.34 35 -0.32 35 -1 35 C-0.40075776 30.80530429 0.57499941 26.99000166 2 23 C1.34 23 0.68 23 0 23 C-0.33 24.32 -0.66 25.64 -1 27 C-2.4746329 23.16595445 -1.42974823 20.73323149 0 17 C1.22062677 14.17318015 1.22062677 14.17318015 0.5625 11.875 C-0.21365357 7.90799289 -0.07900139 4.0290709 0 0 Z " fill="#4F9FC4" transform="translate(433,310)"/>
<path d="M0 0 C0.33 0.99 0.66 1.98 1 3 C1.99 3 2.98 3 4 3 C2.64763423 5.93879484 1.10057341 8.29232911 -1 10.75 C-1.515625 11.36359375 -2.03125 11.9771875 -2.5625 12.609375 C-4 14 -4 14 -6 14 C-6.66 13.34 -7.32 12.68 -8 12 C-8 8.43827265 -7.25329283 7.63465243 -5.125 4.875 C-4.59132813 4.17117187 -4.05765625 3.46734375 -3.5078125 2.7421875 C-2 1 -2 1 0 0 Z " fill="#F7AB51" transform="translate(100,149)"/>
<path d="M0 0 C0 0.99 0 1.98 0 3 C-1.96875 4.60546875 -1.96875 4.60546875 -4.5 6.1875 C-5.3353125 6.71730469 -6.170625 7.24710938 -7.03125 7.79296875 C-7.6809375 8.19128906 -8.330625 8.58960938 -9 9 C-9 8.34 -9 7.68 -9 7 C-9.556875 7.495 -10.11375 7.99 -10.6875 8.5 C-13.38162983 10.24754367 -14.85375007 10.26218749 -18 10 C-17.67 9.34 -17.34 8.68 -17 8 C-16.34 8 -15.68 8 -15 8 C-15 7.01 -15 6.02 -15 5 C-5.77448747 -0.74031891 -5.77448747 -0.74031891 0 0 Z " fill="#6BA9CE" transform="translate(191,246)"/>
<path d="M0 0 C3.1875 0.3125 3.1875 0.3125 6 1 C4.11457175 6.27919911 -0.51548003 8.13897842 -5.125 10.8125 C-8 12 -8 12 -10.375 11.6875 C-10.91125 11.460625 -11.4475 11.23375 -12 11 C-10 8 -10 8 -7 7 C-7.66 6.34 -8.32 5.68 -9 5 C-8.071875 4.731875 -7.14375 4.46375 -6.1875 4.1875 C-3.02401689 3.29235115 -3.02401689 3.29235115 -1.5 1.3125 C-1.005 0.879375 -0.51 0.44625 0 0 Z " fill="#9BACD2" transform="translate(189,234)"/>
<path d="M0 0 C1 3 1 3 0.07421875 4.90234375 C-0.38339844 5.57394531 -0.84101563 6.24554688 -1.3125 6.9375 C-3.080163 9.56620229 -4.60908578 12.15442133 -6 15 C-13.98099584 28.00606729 -13.98099584 28.00606729 -19.21875 29.73046875 C-19.8065625 29.81941406 -20.394375 29.90835938 -21 30 C-20.06409496 28.8944811 -19.12620142 27.79064547 -18.1875 26.6875 C-17.40439453 25.76517578 -17.40439453 25.76517578 -16.60546875 24.82421875 C-15 23 -15 23 -13.42578125 21.58203125 C-11.59880353 19.55483679 -10.97947143 17.54950652 -10 15 C-8.6975911 12.55798332 -7.37436294 10.15015557 -6 7.75 C-5.64421875 7.11320313 -5.2884375 6.47640625 -4.921875 5.8203125 C-2.24237351 1.12118676 -2.24237351 1.12118676 0 0 Z " fill="#6694B5" transform="translate(223,207)"/>
<path d="M0 0 C2.0625 0.4375 2.0625 0.4375 4 1 C2.79709989 1.79989804 1.58733705 2.58947824 0.375 3.375 C-0.63433594 4.03628906 -0.63433594 4.03628906 -1.6640625 4.7109375 C-7.26647852 7.80257176 -12.13468244 8.27169824 -18.375 8.125 C-19.47908203 8.11146484 -19.47908203 8.11146484 -20.60546875 8.09765625 C-22.4037888 8.07430144 -24.20193911 8.03843836 -26 8 C-26 7.67 -26 7.34 -26 7 C-25.28714844 6.89042969 -24.57429687 6.78085938 -23.83984375 6.66796875 C-17.37793683 5.63343143 -17.37793683 5.63343143 -11.25 3.4375 C-7.78780114 1.90614281 -4.73836711 1.44860405 -1 1 C-0.67 0.67 -0.34 0.34 0 0 Z " fill="#F7CCBE" transform="translate(186,232)"/>
<path d="M0 0 C1.32 0.33 2.64 0.66 4 1 C4 1.66 4 2.32 4 3 C3.34 3 2.68 3 2 3 C2 3.66 2 4.32 2 5 C0.31227413 6.14682599 -1.42741219 7.21766316 -3.1875 8.25 C-6.65089405 10.37071754 -9.51899152 12.20373971 -12 15.4375 C-12.66 16.283125 -13.32 17.12875 -14 18 C-14.99 18 -15.98 18 -17 18 C-17.33 18.99 -17.66 19.98 -18 21 C-18.66 20.67 -19.32 20.34 -20 20 C-19.01 18.515 -19.01 18.515 -18 17 C-17.34 17 -16.68 17 -16 17 C-16 16.34 -16 15.68 -16 15 C-15.34 14.67 -14.68 14.34 -14 14 C-14.33 13.01 -14.66 12.02 -15 11 C-14.01 11 -13.02 11 -12 11 C-12 10.34 -12 9.68 -12 9 C-5.296875 5.1328125 -5.296875 5.1328125 -2.625 3.9375 C-0.64235617 3.03325133 -0.64235617 3.03325133 0 0 Z " fill="#F0C698" transform="translate(235,178)"/>
<path d="M0 0 C2.40575974 0.29076241 2.40575974 0.29076241 5.77734375 -0.37890625 C9.15234375 -0.81640625 9.15234375 -0.81640625 11.87109375 0.1171875 C15.60266419 1.32994789 19.14148718 1.62785624 23.02734375 1.80859375 C23.71570313 1.84726562 24.4040625 1.8859375 25.11328125 1.92578125 C26.79257621 2.01907541 28.47242142 2.10237613 30.15234375 2.18359375 C30.15234375 2.51359375 30.15234375 2.84359375 30.15234375 3.18359375 C25.38346738 3.20834439 20.61462854 3.22647778 15.84570312 3.23852539 C14.22395171 3.2435488 12.6022048 3.25036869 10.98046875 3.2590332 C8.64712406 3.27118604 6.31383935 3.27684203 3.98046875 3.28125 C3.2574054 3.28641129 2.53434204 3.29157257 1.78936768 3.29689026 C-1.56778375 3.29726293 -4.63871733 3.23266994 -7.84765625 2.18359375 C-7.84765625 1.52359375 -7.84765625 0.86359375 -7.84765625 0.18359375 C-5.08305864 -1.19870506 -2.96260028 -0.43394326 0 0 Z " fill="#485E6C" transform="translate(159.84765625,389.81640625)"/>
<path d="M0 0 C0.66 0.33 1.32 0.66 2 1 C1.3503125 1.5259375 1.3503125 1.5259375 0.6875 2.0625 C-1.23374868 4.06706595 -1.23374868 4.06706595 -2.4375 7.375 C-4.43493624 12.00905207 -6.97324788 14.99829061 -10.5625 18.5 C-13.08221376 20.89239623 -13.08221376 20.89239623 -14.6875 23.8125 C-15.120625 24.534375 -15.55375 25.25625 -16 26 C-16.66 26 -17.32 26 -18 26 C-17.67 23.69 -17.34 21.38 -17 19 C-16.34 19 -15.68 19 -15 19 C-14.7525 18.4225 -14.505 17.845 -14.25 17.25 C-12.17445909 13.51402637 -10.06826056 11.35608685 -6 10 C-5.690625 9.030625 -5.38125 8.06125 -5.0625 7.0625 C-4 4 -4 4 -1.875 2.625 C-1.25625 2.41875 -0.6375 2.2125 0 2 C0 1.34 0 0.68 0 0 Z " fill="#869FBD" transform="translate(237,181)"/>
<path d="M0 0 C0.33 0.99 0.66 1.98 1 3 C1.66 3.33 2.32 3.66 3 4 C2.38511719 4.74443359 2.38511719 4.74443359 1.7578125 5.50390625 C-1.76054568 9.93973103 -3.84356739 13.44912349 -5 19 C-5.33 18.34 -5.66 17.68 -6 17 C-6.66 16.67 -7.32 16.34 -8 16 C-8.2295711 12.63295715 -8.33943529 10.58629732 -6.625 7.625 C-6.08875 7.08875 -5.5525 6.5525 -5 6 C-4.34 6 -3.68 6 -3 6 C-2.690625 5.195625 -2.38125 4.39125 -2.0625 3.5625 C-1 1 -1 1 0 0 Z " fill="#3C7696" transform="translate(116,262)"/>
<path d="M0 0 C0.66 0 1.32 0 2 0 C-2.10932018 8.58348654 -8.15328217 16.53462043 -14 24 C-14.33 24 -14.66 24 -15 24 C-15.375 21.375 -15.375 21.375 -15 18 C-13.63772363 16.31337211 -12.13433317 14.95243623 -10.51953125 13.5078125 C-8.33774099 11.34284839 -7.31626387 8.75218808 -6 6 C-3.9375 3.625 -3.9375 3.625 -2 2 C-1.34 2 -0.68 2 0 2 C0 1.34 0 0.68 0 0 Z " fill="#9998B2" transform="translate(219,202)"/>
<path d="M0 0 C2.17288535 2.17288535 2.64827002 3.01029519 3 6 C2.38339817 8.46640731 1.51248336 9.635596 -0.5546875 11.10546875 C-3.5948897 12.91262757 -6.4673956 14.4347833 -10 15 C-10 15.66 -10 16.32 -10 17 C-10.99 17 -11.98 17 -13 17 C-13.33 17.66 -13.66 18.32 -14 19 C-13.875 16.75 -13.875 16.75 -13 14 C-10 11.75 -10 11.75 -7 10 C-6.67 9.67 -6.34 9.34 -6 9 C-4.00041636 8.95919217 -1.99954746 8.95745644 0 9 C-0.33 8.34 -0.66 7.68 -1 7 C-1.125 3.9375 -1.125 3.9375 -1 1 C-0.67 0.67 -0.34 0.34 0 0 Z " fill="#FAC977" transform="translate(233,172)"/>
<path d="M0 0 C1.45880109 0.14107747 2.91703551 0.28802415 4.375 0.4375 C5.59316406 0.55931641 5.59316406 0.55931641 6.8359375 0.68359375 C9 1 9 1 11 2 C11 2.66 11 3.32 11 4 C11.66 4.33 12.32 4.66 13 5 C11.20841511 5.02696365 9.41671527 5.04637917 7.625 5.0625 C6.62726563 5.07410156 5.62953125 5.08570313 4.6015625 5.09765625 C2 5 2 5 0 4 C-0.33 4.66 -0.66 5.32 -1 6 C-3.5 4.625 -3.5 4.625 -6 3 C-6 2.34 -6 1.68 -6 1 C-3.03 1.495 -3.03 1.495 0 2 C0 1.34 0 0.68 0 0 Z " fill="#71B6D2" transform="translate(310,170)"/>
<path d="M0 0 C0.598125 0.165 1.19625 0.33 1.8125 0.5 C4.25988354 1.05940195 5.63996734 0.75858193 8 0 C8 0.66 8 1.32 8 2 C5 4 5 4 1.625 3.9375 C-2.39146451 4.00674939 -3.75623503 4.78058186 -7 7 C-8.65369357 7.69822617 -10.31727014 8.37498605 -12 9 C-12.99 8.01 -13.98 7.02 -15 6 C-13.68 6 -12.36 6 -11 6 C-10.67 5.01 -10.34 4.02 -10 3 C-7.96875 2.3046875 -7.96875 2.3046875 -5.5 1.875 C-2.46069634 1.52112584 -2.46069634 1.52112584 0 0 Z " fill="#5CA0CB" transform="translate(138,256)"/>
<path d="M0 0 C3.69114596 0.64756947 6.34055664 1.73898437 9.5625 3.625 C6.91511084 5.0856285 5.66801666 5.625 2.5625 5.625 C0.66238305 5.93297843 -1.23330768 6.26891674 -3.125 6.625 C-4.61580078 6.9034375 -4.61580078 6.9034375 -6.13671875 7.1875 C-6.89597656 7.331875 -7.65523437 7.47625 -8.4375 7.625 C-4.68840253 0.85243682 -4.68840253 0.85243682 0 0 Z " fill="#72A4D0" transform="translate(137.4375,251.375)"/>
<path d="M0 0 C2 3 2 3 1.7578125 5.04296875 C1.171875 7.02864583 0.5859375 9.01432292 0 11 C-0.66 11 -1.32 11 -2 11 C-3.07525194 13.65228812 -4.09456151 16.28368454 -5 19 C-5.66 19 -6.32 19 -7 19 C-7.33 19.99 -7.66 20.98 -8 22 C-7.46261823 16.77396233 -6.16986725 12.42531954 -4 7.625 C-3.72671875 6.99722656 -3.4534375 6.36945313 -3.171875 5.72265625 C-1.16276544 1.16276544 -1.16276544 1.16276544 0 0 Z " fill="#E69D56" transform="translate(90,161)"/>
<path d="M0 0 C0.99 0 1.98 0 3 0 C2.50769231 6.4 2.50769231 6.4 -0.0625 9.4375 C-1.0215625 10.2109375 -1.0215625 10.2109375 -2 11 C-5.875 9.25 -5.875 9.25 -7 7 C-4.66666667 4.66666667 -2.33333333 2.33333333 0 0 Z " fill="#729DBF" transform="translate(195,236)"/>
<path d="M0 0 C2.31 0 4.62 0 7 0 C6.67 1.98 6.34 3.96 6 6 C7.65 6.33 9.3 6.66 11 7 C11 7.99 11 8.98 11 10 C8.69 10.33 6.38 10.66 4 11 C4 11.66 4 12.32 4 13 C3.34 12.67 2.68 12.34 2 12 C2.66 11.01 3.32 10.02 4 9 C4.66 9 5.32 9 6 9 C6 8.34 6 7.68 6 7 C5.34 7 4.68 7 4 7 C4 6.01 4 5.02 4 4 C3.01 4.33 2.02 4.66 1 5 C0.67 3.35 0.34 1.7 0 0 Z " fill="#F28056" transform="translate(117,242)"/>
<path d="M0 0 C1.485 0.99 1.485 0.99 3 2 C3 2.66 3 3.32 3 4 C3.7425 4.0825 4.485 4.165 5.25 4.25 C8.6427671 5.17530012 9.93127504 6.16508061 12 9 C12.25 12.25 12.25 12.25 12 15 C12.99 15.33 13.98 15.66 15 16 C13.68 16 12.36 16 11 16 C11 15.01 11 14.02 11 13 C10.01 13 9.02 13 8 13 C7.87625 12.360625 7.7525 11.72125 7.625 11.0625 C7.41875 10.381875 7.2125 9.70125 7 9 C6.34 8.67 5.68 8.34 5 8 C5 7.34 5 6.68 5 6 C4.01 6.33 3.02 6.66 2 7 C2 6.34 2 5.68 2 5 C1.34 5 0.68 5 0 5 C0 3.35 0 1.7 0 0 Z " fill="#6BB7D9" transform="translate(352,192)"/>
<path d="M0 0 C-1.98 0.33 -3.96 0.66 -6 1 C-6 1.66 -6 2.32 -6 3 C-7.72156096 4.01303762 -9.45261806 5.00994848 -11.1875 6 C-12.63189453 6.8353125 -12.63189453 6.8353125 -14.10546875 7.6875 C-17.04888743 9.02216758 -18.81880057 9.27915461 -22 9 C-21 6 -21 6 -17.9453125 4.4296875 C-16.6764591 3.90033357 -15.40274099 3.38252586 -14.125 2.875 C-13.48691406 2.61074219 -12.84882813 2.34648437 -12.19140625 2.07421875 C-4.07387582 -1.26430629 -4.07387582 -1.26430629 0 0 Z " fill="#92B1B8" transform="translate(261,172)"/>
<path d="M0 0 C1 3 1 3 0.0625 5.1875 C-0.4634375 6.0846875 -0.4634375 6.0846875 -1 7 C-1.66 6.67 -2.32 6.34 -3 6 C-3.12375 6.680625 -3.2475 7.36125 -3.375 8.0625 C-5.35135135 17.35135135 -5.35135135 17.35135135 -8 20 C-8.027193 18.41676312 -8.04648306 16.83338938 -8.0625 15.25 C-8.07410156 14.36828125 -8.08570312 13.4865625 -8.09765625 12.578125 C-7.96388665 9.04660766 -7.86937363 6.90898538 -5.37109375 4.296875 C-4.73300781 3.78640625 -4.09492187 3.2759375 -3.4375 2.75 C-2.79683594 2.22921875 -2.15617187 1.7084375 -1.49609375 1.171875 C-1.00238281 0.78515625 -0.50867188 0.3984375 0 0 Z " fill="#35576B" transform="translate(102,285)"/>
<path d="M0 0 C0.99 0 1.98 0 3 0 C1.06617497 7.03209101 -2.53152299 13.13913155 -8 18 C-7.25 13.25 -7.25 13.25 -5 11 C-4.690625 9.88625 -4.38125 8.7725 -4.0625 7.625 C-3.09409347 4.32102479 -2.40870359 2.40870359 0 0 Z " fill="#628BA1" transform="translate(428,351)"/>
<path d="M0 0 C1.93903437 3.87806874 2.63253592 6.87844125 3.33984375 11.07421875 C3.55769531 11.70972656 3.77554687 12.34523438 4 13 C4.99 13.33 5.98 13.66 7 14 C6.34 14.66 5.68 15.32 5 16 C4.67 16.99 4.34 17.98 4 19 C3.34 19.33 2.68 19.66 2 20 C1.34 19.34 0.68 18.68 0 18 C0.99 16.515 0.99 16.515 2 15 C1.34 15 0.68 15 0 15 C0 10.05 0 5.1 0 0 Z " fill="#83C6E0" transform="translate(385,244)"/>
<path d="M0 0 C-4.039841 3.69322743 -7.82100437 6.99902442 -13 9 C-13.99 8.67 -14.98 8.34 -16 8 C-14.71034824 6.62437146 -13.37310707 5.29233607 -12 4 C-11.34 4 -10.68 4 -10 4 C-9.34 3.01 -8.68 2.02 -8 1 C-4.91140111 -1.05906593 -3.47854302 -1.01882013 0 0 Z " fill="#F7AE85" transform="translate(143,241)"/>
<path d="M0 0 C4.43744539 -0.05793591 8.87479389 -0.09357467 13.3125 -0.125 C14.57513672 -0.14175781 15.83777344 -0.15851563 17.13867188 -0.17578125 C18.95141602 -0.18544922 18.95141602 -0.18544922 20.80078125 -0.1953125 C21.91622314 -0.20578613 23.03166504 -0.21625977 24.1809082 -0.22705078 C27 0 27 0 30 2 C19.51329011 2.89571109 9.48930498 2.97960463 -1 2 C-0.67 1.34 -0.34 0.68 0 0 Z " fill="#355163" transform="translate(176,390)"/>
<path d="M0 0 C0 4.99257303 -0.11336323 7.9542233 -3.4375 11.875 C-6 14 -6 14 -8 14 C-8.33 13.01 -8.66 12.02 -9 11 C-7.6875 8.8125 -7.6875 8.8125 -6 7 C-5.34 7 -4.68 7 -4 7 C-3.71125 6.21625 -3.4225 5.4325 -3.125 4.625 C-2 2 -2 2 0 0 Z " fill="#B89DB1" transform="translate(214,201)"/>
<path d="M0 0 C0.99 0.33 1.98 0.66 3 1 C2.9278125 2.15757812 2.855625 3.31515625 2.78125 4.5078125 C2.68740508 6.04686922 2.59366039 7.58593204 2.5 9.125 C2.45230469 9.88554687 2.40460938 10.64609375 2.35546875 11.4296875 C2.10215228 15.6275033 1.94622378 19.79201098 2 24 C1.34 24 0.68 24 0 24 C0 16.08 0 8.16 0 0 Z " fill="#315066" transform="translate(93,305)"/>
<path d="M0 0 C0.66 0 1.32 0 2 0 C0.6717914 4.28383762 -0.82522516 5.9783526 -4.625 8.3125 C-5.44226563 8.82425781 -6.25953125 9.33601563 -7.1015625 9.86328125 C-7.72804688 10.23839844 -8.35453125 10.61351562 -9 11 C-11 8 -11 8 -10.625 5.8125 C-10.41875 5.214375 -10.2125 4.61625 -10 4 C-9.401875 4.185625 -8.80375 4.37125 -8.1875 4.5625 C-5.83591238 5.22093687 -5.83591238 5.22093687 -3 4 C-3 3.34 -3 2.68 -3 2 C-2.01 2 -1.02 2 0 2 C0 1.34 0 0.68 0 0 Z " fill="#C9744E" transform="translate(121,253)"/>
<path d="M0 0 C-2.98696425 3.33161397 -5.82719722 5.34826557 -10 7 C-12.375 6.6875 -12.375 6.6875 -14 6 C-13.67 5.01 -13.34 4.02 -13 3 C-11.35 3 -9.7 3 -8 3 C-8 2.34 -8 1.68 -8 1 C-4.93251126 -0.86240388 -3.40254489 -1.2151946 0 0 Z " fill="#B3919F" transform="translate(136,249)"/>
<path d="M0 0 C-1.45738102 0.98058352 -2.91593675 1.95942132 -4.375 2.9375 C-5.59316406 3.75541016 -5.59316406 3.75541016 -6.8359375 4.58984375 C-10.74881511 7.13957086 -13.32541698 7.08656635 -18 7 C-17 5 -17 5 -14.4375 4.125 C-13.303125 3.75375 -12.16875 3.3825 -11 3 C-8.91852342 1.94355246 -6.87018937 0.84470136 -4.83203125 -0.29296875 C-3 -1 -3 -1 0 0 Z " fill="#566C7C" transform="translate(409,380)"/>
<path d="M0 0 C0.66 0.33 1.32 0.66 2 1 C1.21625 1.5775 0.4325 2.155 -0.375 2.75 C-2.90697119 4.92026102 -3.63773457 6.09383374 -5 9 C-6.31200404 10.35432675 -7.64631404 11.68733482 -9 13 C-10.02323436 14.31558703 -11.03126968 15.64377755 -12 17 C-12.66 16.67 -13.32 16.34 -14 16 C-12.62581378 11.50266327 -10.68527603 9.80782936 -7 7 C-5.65705519 5.34106818 -4.32255312 3.67523395 -3 2 C-2.01 1.34 -1.02 0.68 0 0 Z " fill="#787C80" transform="translate(118,259)"/>
<path d="M0 0 C0 0.66 0 1.32 0 2 C-1.98 2 -3.96 2 -6 2 C-6 2.99 -6 3.98 -6 5 C-10.05431692 6.15837626 -12.21812119 5.83691257 -16 4 C-15 2 -15 2 -11.9375 0.875 C-7.90141709 -0.19682285 -4.15815272 -0.1459001 0 0 Z " fill="#98ABD7" transform="translate(150,247)"/>
<path d="M0 0 C1.98 0.66 3.96 1.32 6 2 C6 2.33 6 2.66 6 3 C7.65 3.33 9.3 3.66 11 4 C11 4.99 11 5.98 11 7 C8.8125 7.75 8.8125 7.75 6 8 C3.07689096 6.206274 1.36669731 5.01546949 0.1875 1.75 C0.125625 1.1725 0.06375 0.595 0 0 Z " fill="#4A6475" transform="translate(122,376)"/>
<path d="M0 0 C-0.93142989 4.09829153 -1.61008652 5.69944169 -5 8.3125 C-6.64916628 9.24015603 -8.30759458 10.15379729 -10 11 C-9.92714594 7.86727542 -9.75474347 5.73388372 -7.4453125 3.48828125 C-2.62768625 0 -2.62768625 0 0 0 Z " fill="#9FA7C2" transform="translate(234,185)"/>
<path d="M0 0 C5.02696818 2.99831859 9.59286523 6.14375707 14 10 C12 11 12 11 10.16015625 10.6171875 C6.55225368 9.34064842 4.45721448 8.58995417 2.0625 5.5 C1 3 1 3 0 0 Z " fill="#7ABAD4" transform="translate(402,263)"/>
<path d="M0 0 C2.64701022 1.32350511 3.04357118 2.20428498 4 5 C3.625 8.75 3.625 8.75 3 12 C-1.76923077 7.69230769 -1.76923077 7.69230769 -2 4 C-1.0625 1.75 -1.0625 1.75 0 0 Z " fill="#D88838" transform="translate(91,232)"/>
<path d="M0 0 C4.23322844 0.62045463 7.52290295 2.10523559 11.3125 4.0625 C12.38113281 4.61035156 13.44976562 5.15820312 14.55078125 5.72265625 C15.35902344 6.14417969 16.16726563 6.56570312 17 7 C15 8 15 8 13.23046875 7.44140625 C12.55628906 7.15136719 11.88210938 6.86132812 11.1875 6.5625 C7.97734752 5.2761001 5.50248786 4.67164176 2 5 C0 1.125 0 1.125 0 0 Z " fill="#87C4DC" transform="translate(321,173)"/>
<path d="M0 0 C-3.52106829 1.94539023 -7.1475537 3.05706819 -11 4.1875 C-12.216875 4.55230469 -13.43375 4.91710937 -14.6875 5.29296875 C-17.72881752 5.94211789 -19.16511645 6.11269179 -22 5 C-14.57634293 1.66692948 -8.19104544 -0.2874051 0 0 Z " fill="#C7B2C6" transform="translate(156,242)"/>
<path d="M0 0 C3.41659491 -0.05816623 6.83306205 -0.09365195 10.25 -0.125 C11.21808594 -0.14175781 12.18617188 -0.15851563 13.18359375 -0.17578125 C14.11816406 -0.18222656 15.05273438 -0.18867188 16.015625 -0.1953125 C16.87446289 -0.20578613 17.73330078 -0.21625977 18.61816406 -0.22705078 C21.17903596 0.01706677 22.79511029 0.71009488 25 2 C22.33373641 2.19693992 19.66743361 2.38274782 17 2.5625 C16.25621094 2.61857422 15.51242187 2.67464844 14.74609375 2.73242188 C9.66997882 3.06347285 5.02988738 2.77163045 0 2 C0 1.34 0 0.68 0 0 Z " fill="#345062" transform="translate(302,390)"/>
<path d="M0 0 C0.33 0.99 0.66 1.98 1 3 C-2.07999946 6.67230705 -4.2482602 7.56802365 -9 8 C-8.34 5.69 -7.68 3.38 -7 1 C-4.03 1.495 -4.03 1.495 -1 2 C-0.67 1.34 -0.34 0.68 0 0 Z " fill="#327698" transform="translate(423,359)"/>
<path d="M0 0 C2.04219706 1.69179328 2.91793306 2.63727666 3.51171875 5.26171875 C3.56972656 6.06222656 3.62773438 6.86273438 3.6875 7.6875 C3.75324219 8.49574219 3.81898437 9.30398437 3.88671875 10.13671875 C3.92410156 10.75160156 3.96148437 11.36648437 4 12 C3.01 12.33 2.02 12.66 1 13 C-0.00496852 9.98509443 -0.10335303 7.95818308 -0.0625 4.8125 C-0.05347656 3.91144531 -0.04445313 3.01039063 -0.03515625 2.08203125 C-0.02355469 1.39496094 -0.01195313 0.70789063 0 0 Z " fill="#DE9951" transform="translate(80,206)"/>
<path d="M0 0 C1 2 1 2 0.1875 4.5 C-1 7 -1 7 -3 9 C-3.71408334 10.98356483 -4.38617742 12.98315437 -5 15 C-5.33 15 -5.66 15 -6 15 C-6.49925898 8.88407749 -5.35277477 5.93055113 -2 1 C-1.34 0.67 -0.68 0.34 0 0 Z " fill="#F0A03C" transform="translate(94,170)"/>
<path d="M0 0 C0.33 0 0.66 0 1 0 C0.38461538 6.52307692 0.38461538 6.52307692 -1.5625 8.9375 C-2.036875 9.288125 -2.51125 9.63875 -3 10 C-3.99 9.67 -4.98 9.34 -6 9 C-2.25 2.25 -2.25 2.25 0 0 Z " fill="#5C9ABD" transform="translate(199,239)"/>
<path d="M0 0 C0 4.78016573 -2.86842835 7.79984825 -6.0625 11.1875 C-7.0215625 12.0846875 -7.0215625 12.0846875 -8 13 C-8.5775 13.5775 -9.155 14.155 -9.75 14.75 C-10.36875 15.36875 -10.36875 15.36875 -11 16 C-9.45364633 9.127317 -4.82740069 4.82740069 0 0 Z " fill="#D4A8A7" transform="translate(214,199)"/>
<path d="M0 0 C0.33 0.66 0.66 1.32 1 2 C-1.09016808 6.54918935 -4.13620455 8.99482576 -8 12 C-8 8.43827265 -7.25329283 7.63465243 -5.125 4.875 C-4.59132813 4.17117187 -4.05765625 3.46734375 -3.5078125 2.7421875 C-2 1 -2 1 0 0 Z " fill="#E6A158" transform="translate(100,149)"/>
<path d="M0 0 C1.22589844 0.15275391 1.22589844 0.15275391 2.4765625 0.30859375 C3.41628906 0.43427734 3.41628906 0.43427734 4.375 0.5625 C4.375 1.2225 4.375 1.8825 4.375 2.5625 C1.91703147 2.75686491 -0.54109294 2.9432742 -3 3.125 C-3.69867188 3.18107422 -4.39734375 3.23714844 -5.1171875 3.29492188 C-10.3984375 3.67578125 -10.3984375 3.67578125 -12.625 2.5625 C-12.625 1.9025 -12.625 1.2425 -12.625 0.5625 C-11.67625 0.583125 -10.7275 0.60375 -9.75 0.625 C-6.05725636 0.55114513 -3.77661684 -0.48556502 0 0 Z " fill="#344F62" transform="translate(280.625,389.4375)"/>
<path d="M0 0 C2 1 2 1 5 3 C5 3.99 5 4.98 5 6 C3.3603125 5.9071875 3.3603125 5.9071875 1.6875 5.8125 C-1.92126083 5.64402086 -1.92126083 5.64402086 -3.9375 7.5 C-4.288125 7.995 -4.63875 8.49 -5 9 C-4.42647107 5.12867972 -2.51295648 2.91827204 0 0 Z " fill="#6D8CAD" transform="translate(122,256)"/>
<path d="M0 0 C0.66 0.33 1.32 0.66 2 1 C2 1.99 2 2.98 2 4 C-2.95 5.485 -2.95 5.485 -8 7 C-8 6.34 -8 5.68 -8 5 C-7.34 5 -6.68 5 -6 5 C-6 4.34 -6 3.68 -6 3 C-4.03533587 1.93224776 -2.03144641 0.93446535 0 0 Z " fill="#82A8CC" transform="translate(187,242)"/>
<path d="M0 0 C0.99 0.66 1.98 1.32 3 2 C2 5 2 5 0.375 6.25 C-2.95194155 7.30061312 -5.62008449 6.64998375 -9 6 C-9 5.67 -9 5.34 -9 5 C-8.071875 4.731875 -7.14375 4.46375 -6.1875 4.1875 C-3.23759634 3.08851629 -1.94384814 2.37581439 0 0 Z " fill="#AEA9C6" transform="translate(189,234)"/>
<path d="M0 0 C-0.99 0 -1.98 0 -3 0 C-3 0.66 -3 1.32 -3 2 C-4.95421035 2.86355778 -6.91351347 3.71559934 -8.875 4.5625 C-9.96554688 5.03816406 -11.05609375 5.51382813 -12.1796875 6.00390625 C-13.11039063 6.33261719 -14.04109375 6.66132813 -15 7 C-15.66 6.67 -16.32 6.34 -17 6 C-13.375 3 -13.375 3 -10 3 C-10 2.34 -10 1.68 -10 1 C-3.71428571 -1.42857143 -3.71428571 -1.42857143 0 0 Z " fill="#619DB9" transform="translate(265,172)"/>
<path d="M0 0 C-2.39064268 2.20674709 -3.57013194 2.98131008 -6.875 3.125 C-7.90625 3.08375 -8.9375 3.0425 -10 3 C-12.00569659 3.29714023 -14.00822259 3.62061383 -16 4 C-11.55085105 -0.07838654 -5.7906467 -1.80957709 0 0 Z " fill="#ABAFD3" transform="translate(152,245)"/>
<path d="M0 0 C0.66 0.33 1.32 0.66 2 1 C1.719172 2.98073365 1.42503386 4.95958448 1.125 6.9375 C0.88136719 8.59072266 0.88136719 8.59072266 0.6328125 10.27734375 C0.42398438 11.17582031 0.21515625 12.07429687 0 13 C-0.99 13.495 -0.99 13.495 -2 14 C-2.05437607 12.41705218 -2.09296271 10.83355744 -2.125 9.25 C-2.14820312 8.36828125 -2.17140625 7.4865625 -2.1953125 6.578125 C-1.99139502 3.8864142 -1.36551721 2.30095026 0 0 Z " fill="#DA8B44" transform="translate(83,180)"/>
<path d="M0 0 C0.33 0.66 0.66 1.32 1 2 C1.99 2 2.98 2 4 2 C4 2.99 4 3.98 4 5 C1.29120665 6.35439668 -1.00933268 6.06501451 -4 6 C-2.25 1.125 -2.25 1.125 0 0 Z " fill="#2E5166" transform="translate(386,384)"/>
<path d="M0 0 C0.66 0 1.32 0 2 0 C2.05395478 1.62463842 2.09277195 3.24978541 2.125 4.875 C2.14820312 5.77992188 2.17140625 6.68484375 2.1953125 7.6171875 C2 10 2 10 0 12 C-0.69748583 13.31747324 -1.36959957 14.64914193 -2 16 C-2.042721 14.33388095 -2.04063832 12.66617115 -2 11 C-1.67 10.67 -1.34 10.34 -1 10 C-0.95386799 8.50070956 -0.96203748 6.99951954 -1 5.5 C-1.03796252 4.00048046 -1.04613201 2.49929044 -1 1 C-0.67 0.67 -0.34 0.34 0 0 Z " fill="#E58D3E" transform="translate(84,208)"/>
<path d="M0 0 C1.65 0.33 3.3 0.66 5 1 C5 2.98 5 4.96 5 7 C2 7 2 7 0.25 5.75 C-1 4 -1 4 -0.6875 1.8125 C-0.460625 1.214375 -0.23375 0.61625 0 0 Z " fill="#DE8E48" transform="translate(98,248)"/>
<path d="M0 0 C-3.29907353 3.29907353 -7.29683373 4.89128726 -11.9375 5.1875 C-12.9584375 5.0946875 -12.9584375 5.0946875 -14 5 C-10.58522132 -0.12216802 -5.84766819 -0.27846039 0 0 Z " fill="#AFB3D7" transform="translate(184,240)"/>
<path d="M0 0 C0.99 0 1.98 0 3 0 C3 2 3 2 1.57421875 3.54296875 C0.95160156 4.08566406 0.32898438 4.62835938 -0.3125 5.1875 C-0.92738281 5.73792969 -1.54226562 6.28835937 -2.17578125 6.85546875 C-2.77777344 7.23316406 -3.37976563 7.61085937 -4 8 C-4.99 7.67 -5.98 7.34 -7 7 C-4.66666667 4.66666667 -2.33333333 2.33333333 0 0 Z " fill="#869EBF" transform="translate(195,236)"/>
<path d="M0 0 C0.66 0.33 1.32 0.66 2 1 C1.51789063 1.39832031 1.03578125 1.79664063 0.5390625 2.20703125 C-0.09257812 2.73683594 -0.72421875 3.26664063 -1.375 3.8125 C-2.00148437 4.33457031 -2.62796875 4.85664063 -3.2734375 5.39453125 C-5.2221048 7.08225739 -5.2221048 7.08225739 -7 10 C-7.99 10 -8.98 10 -10 10 C-10.33 10.99 -10.66 11.98 -11 13 C-11.66 12.67 -12.32 12.34 -13 12 C-12.34 11.01 -11.68 10.02 -11 9 C-10.34 9 -9.68 9 -9 9 C-9 8.34 -9 7.68 -9 7 C-7.03125 5.2734375 -7.03125 5.2734375 -4.5 3.375 C-3.24703125 2.42753906 -3.24703125 2.42753906 -1.96875 1.4609375 C-0.99421875 0.73777344 -0.99421875 0.73777344 0 0 Z " fill="#CEB0AD" transform="translate(228,186)"/>
<path d="M0 0 C1.77049689 -0.05410687 3.54146849 -0.09284119 5.3125 -0.125 C6.29863281 -0.14820313 7.28476563 -0.17140625 8.30078125 -0.1953125 C11 0 11 0 14 2 C13.67 2.66 13.34 3.32 13 4 C8.51474352 3.343621 4.33085971 2.29925791 0 1 C0 0.67 0 0.34 0 0 Z " fill="#778B95" transform="translate(139,388)"/>
<path d="M0 0 C-3.732388 3.57011026 -8.0949989 4.10913442 -13 5 C-8.69993829 0.34159981 -6.26860113 -2.01490751 0 0 Z " fill="#F7BFA1" transform="translate(152,240)"/>
<path d="M0 0 C0.66 0.33 1.32 0.66 2 1 C-1.625 7.875 -1.625 7.875 -5 9 C-5.33 9.66 -5.66 10.32 -6 11 C-6.99 10.67 -7.98 10.34 -9 10 C-6.42215154 7.35247996 -4.08351902 5.05567935 -1 3 C-0.67 2.01 -0.34 1.02 0 0 Z " fill="#C09CB1" transform="translate(198,224)"/>
<path d="M0 0 C4.95 1.98 4.95 1.98 10 4 C10 4.66 10 5.32 10 6 C7.69 5.34 5.38 4.68 3 4 C3 4.66 3 5.32 3 6 C2.01 6 1.02 6 0 6 C0 4.02 0 2.04 0 0 Z " fill="#55B6DB" transform="translate(328,177)"/>
<path d="M0 0 C4.95 0.99 4.95 0.99 10 2 C9.67 2.99 9.34 3.98 9 5 C5.625 4.75 5.625 4.75 2 4 C1.34 2.68 0.68 1.36 0 0 Z " fill="#345163" transform="translate(137,384)"/>
<path d="M0 0 C2.475 0.495 2.475 0.495 5 1 C5 3.97 5 6.94 5 10 C4.01 9.67 3.02 9.34 2 9 C2 6.36 2 3.72 2 1 C1.34 0.67 0.68 0.34 0 0 Z " fill="#305064" transform="translate(98,344)"/>
<path d="M0 0 C0.33 1.32 0.66 2.64 1 4 C0.01 4.495 0.01 4.495 -1 5 C-1.33 5.99 -1.66 6.98 -2 8 C-2.99 8 -3.98 8 -5 8 C-5.33 9.32 -5.66 10.64 -6 12 C-6.66 11.34 -7.32 10.68 -8 10 C-6.625 8 -6.625 8 -5 6 C-4.34 6 -3.68 6 -3 6 C-2.690625 5.195625 -2.38125 4.39125 -2.0625 3.5625 C-1 1 -1 1 0 0 Z " fill="#547C93" transform="translate(116,262)"/>
<path d="M0 0 C0.99 0.33 1.98 0.66 3 1 C0.35521821 5.0367722 -2.75175242 6.87587621 -7 9 C-5.44499019 5.18315774 -2.96404505 2.80804268 0 0 Z " fill="#60A2C6" transform="translate(189,246)"/>
<path d="M0 0 C0.99 0.33 1.98 0.66 3 1 C3.6875 3.0625 3.6875 3.0625 4 5 C4.66 5 5.32 5 6 5 C5.67 5.99 5.34 6.98 5 8 C5.38932856 10.14255793 5.38932856 10.14255793 6 12 C3.32098068 9.68118495 2.33795597 7.68185532 1.3125 4.3125 C1.06113281 3.50425781 0.80976562 2.69601563 0.55078125 1.86328125 C0.36902344 1.24839844 0.18726562 0.63351563 0 0 Z " fill="#EBB361" transform="translate(85,230)"/>
<path d="M0 0 C0.66 0.33 1.32 0.66 2 1 C0.875 3.875 0.875 3.875 -1 7 C-4.1875 8.375 -4.1875 8.375 -7 9 C-6.82374165 6.62051228 -6.30280227 5.29774151 -4.59765625 3.62109375 C-3.09350908 2.37884514 -1.54870149 1.18623944 0 0 Z " fill="#FDC5AF" transform="translate(191,225)"/>
<path d="M0 0 C2.31 0 4.62 0 7 0 C6.67 1.65 6.34 3.3 6 5 C5.34 4.67 4.68 4.34 4 4 C3.01 4.33 2.02 4.66 1 5 C0.67 3.35 0.34 1.7 0 0 Z " fill="#F79447" transform="translate(117,242)"/>
<path d="M0 0 C0.8353125 0.556875 0.8353125 0.556875 1.6875 1.125 C1.3575 1.785 1.0275 2.445 0.6875 3.125 C-0.67375 3.063125 -0.67375 3.063125 -2.0625 3 C-5.1907046 3.12031556 -6.69864006 3.5164708 -9.3125 5.125 C-8.27806141 2.30380386 -7.58029294 1.28003802 -4.9375 -0.25 C-2.3125 -0.875 -2.3125 -0.875 0 0 Z " fill="#2A5C78" transform="translate(411.3125,372.875)"/>
<path d="M0 0 C1.65 0 3.3 0 5 0 C4.25 2.4375 4.25 2.4375 3 5 C1.0625 6 1.0625 6 -1 6 C-2.75 4.5625 -2.75 4.5625 -4 3 C-2.68 3 -1.36 3 0 3 C0 2.01 0 1.02 0 0 Z " fill="#5595BF" transform="translate(127,259)"/>
<path d="M0 0 C0.66 0.33 1.32 0.66 2 1 C-1.17320782 4.53586014 -3.16743695 6.58578031 -8 7 C-5.42215154 4.35247996 -3.08351902 2.05567935 0 0 Z " fill="#F2BA6B" transform="translate(117,133)"/>
<path d="M0 0 C3.3 0 6.6 0 10 0 C9.67 0.99 9.34 1.98 9 3 C8.443125 2.814375 7.88625 2.62875 7.3125 2.4375 C4.600867 1.92448835 2.65628961 2.3359276 0 3 C0 2.01 0 1.02 0 0 Z " fill="#FBD26F" transform="translate(154,122)"/>
<path d="M0 0 C0 3 0 3 -1.20703125 4.64453125 C-3.43566363 6.32935791 -4.92093516 6.48702429 -7.6875 6.6875 C-8.49574219 6.75324219 -9.30398437 6.81898438 -10.13671875 6.88671875 C-11.05904297 6.94279297 -11.05904297 6.94279297 -12 7 C-9.50601226 4.50601226 -7.16447538 3.89386667 -3.875 2.78125 C-1.80424247 2.05807568 -1.80424247 2.05807568 0 0 Z " fill="#D2B6C3" transform="translate(188,233)"/>
<path d="M0 0 C0.99 0 1.98 0 3 0 C3.33 1.32 3.66 2.64 4 4 C1.525 5.485 1.525 5.485 -1 7 C-1.04254356 5.00045254 -1.04080783 2.99958364 -1 1 C-0.67 0.67 -0.34 0.34 0 0 Z " fill="#3D667C" transform="translate(105,274)"/>
<path d="M0 0 C0.66 0.33 1.32 0.66 2 1 C-0.97 4.96 -0.97 4.96 -4 9 C-4.33 8.01 -4.66 7.02 -5 6 C-2.66666667 1.33333333 -2.66666667 1.33333333 0 0 Z " fill="#4680A4" transform="translate(117,265)"/>
<path d="M0 0 C0.66 0 1.32 0 2 0 C6 4.35294118 6 4.35294118 6 8 C5.01 8 4.02 8 3 8 C3 7.01 3 6.02 3 5 C2.34 4.67 1.68 4.34 1 4 C0.34 3.01 -0.32 2.02 -1 1 C-0.67 0.67 -0.34 0.34 0 0 Z " fill="#59B6E0" transform="translate(400,263)"/>
<path d="M0 0 C1.32 0.66 2.64 1.32 4 2 C4 2.66 4 3.32 4 4 C1.36 4.33 -1.28 4.66 -4 5 C-2.68 3.35 -1.36 1.7 0 0 Z " fill="#6D9CC9" transform="translate(133,254)"/>
<path d="M0 0 C0.66 0 1.32 0 2 0 C0.49860488 4.20390632 -2.17275043 5.89110738 -6 8 C-6.99 7.67 -7.98 7.34 -9 7 C-7.2421875 6.05598958 -5.484375 5.11197917 -3.7265625 4.16796875 C-1.69497635 2.95236507 -1.69497635 2.95236507 0 0 Z " fill="#97A3C5" transform="translate(193,235)"/>
<path d="M0 0 C1.32 0 2.64 0 4 0 C2.61918777 4.1424367 0.40174442 5.32203099 -3 8 C-2.37240135 5.07120629 -1.41377341 2.63904371 0 0 Z " fill="#F2B3B0" transform="translate(193,224)"/>
<path d="M0 0 C1.32 0.33 2.64 0.66 4 1 C4 1.66 4 2.32 4 3 C3.34 3 2.68 3 2 3 C2 3.66 2 4.32 2 5 C-0.375 6.6875 -0.375 6.6875 -3 8 C-3.66 7.67 -4.32 7.34 -5 7 C-4.0409375 6.6596875 -4.0409375 6.6596875 -3.0625 6.3125 C-0.72806339 5.14749104 -0.72806339 5.14749104 -0.25 2.375 C-0.1675 1.59125 -0.085 0.8075 0 0 Z " fill="#C5BAA7" transform="translate(235,178)"/>
<path d="M0 0 C1.32 0.33 2.64 0.66 4 1 C4.33 2.98 4.66 4.96 5 7 C4.01 6.34 3.02 5.68 2 5 C2 4.34 2 3.68 2 3 C1.34 3 0.68 3 0 3 C0 2.01 0 1.02 0 0 Z " fill="#375465" transform="translate(107,361)"/>
<path d="M0 0 C3.64553172 1.2808625 5.16671013 2.16671013 8 5 C5.03 4.67 2.06 4.34 -1 4 C-0.67 2.68 -0.34 1.36 0 0 Z " fill="#80B9DA" transform="translate(338,181)"/>
<path d="M0 0 C5.75 1.75 5.75 1.75 8 4 C7.01 4.66 6.02 5.32 5 6 C4.34 5.67 3.68 5.34 3 5 C3 4.34 3 3.68 3 3 C2.34 3 1.68 3 1 3 C0.67 2.01 0.34 1.02 0 0 Z " fill="#F9D772" transform="translate(192,129)"/>
<path d="M0 0 C1.32 0 2.64 0 4 0 C3.60196439 2.88575819 3.20990931 3.82189513 0.9375 5.75 C0.298125 6.1625 -0.34125 6.575 -1 7 C-1 6.01 -1 5.02 -1 4 C-0.34 4 0.32 4 1 4 C0.67 2.68 0.34 1.36 0 0 Z " fill="#4F7585" transform="translate(416,367)"/>
<path d="M0 0 C1.41687119 4.25061356 0.19320039 6.71851625 -1 11 C-1.66 11 -2.32 11 -3 11 C-2.44894091 7.0507432 -1.61064629 3.65079826 0 0 Z " fill="#7CAAC0" transform="translate(435,334)"/>
<path d="M0 0 C0.6875 1.75 0.6875 1.75 1 4 C-0.4375 6.25 -0.4375 6.25 -2 8 C-2.66 7.67 -3.32 7.34 -4 7 C-2.92598892 4.08482708 -2.22189824 2.22189824 0 0 Z " fill="#87968D" transform="translate(108,268)"/>
<path d="M0 0 C1.98 0.99 1.98 0.99 4 2 C4 3.32 4 4.64 4 6 C4.99 6.33 5.98 6.66 7 7 C5.68 7 4.36 7 3 7 C3 6.01 3 5.02 3 4 C2.01 4 1.02 4 0 4 C0 2.68 0 1.36 0 0 Z " fill="#58B5DB" transform="translate(360,201)"/>
<path d="M0 0 C0.99 0.33 1.98 0.66 3 1 C-1.625 6.875 -1.625 6.875 -5 8 C-3.62845496 5.04590299 -2.01136276 2.55991624 0 0 Z " fill="#FCCE8E" transform="translate(216,191)"/>
<path d="M0 0 C2.9375 0.375 2.9375 0.375 6 1 C6.33 1.66 6.66 2.32 7 3 C6.34 3.66 5.68 4.32 5 5 C2.5 3.625 2.5 3.625 0 2 C0 1.34 0 0.68 0 0 Z " fill="#4DB4E3" transform="translate(304,171)"/>
<path d="M0 0 C0 0.99 0 1.98 0 3 C-2.375 4.75 -2.375 4.75 -5 6 C-5.66 5.67 -6.32 5.34 -7 5 C-4.63707344 2.47411298 -3.33537489 1.11179163 0 0 Z " fill="#ECAB69" transform="translate(105,144)"/>
<path d="M0 0 C5.66153846 1.47692308 5.66153846 1.47692308 7.375 4.125 C7.684375 5.053125 7.684375 5.053125 8 6 C4.08597051 4.73058503 2.20927127 3.48832306 0 0 Z " fill="#718B98" transform="translate(115,373)"/>
<path d="M0 0 C1.32 0 2.64 0 4 0 C4.33 1.65 4.66 3.3 5 5 C3.35 4.67 1.7 4.34 0 4 C0 2.68 0 1.36 0 0 Z " fill="#385667" transform="translate(114,369)"/>
<path d="M0 0 C0.99 0 1.98 0 3 0 C3 2.64 3 5.28 3 8 C0.37613513 4.93882432 0 4.26826873 0 0 Z " fill="#657E87" transform="translate(97,345)"/>
<path d="M0 0 C1.41687119 4.25061356 0.19320039 6.71851625 -1 11 C-2.125 9.375 -2.125 9.375 -3 7 C-1.63157895 1.63157895 -1.63157895 1.63157895 0 0 Z " fill="#439DC8" transform="translate(434,326)"/>
<path d="M0 0 C2.05078125 0.03255208 4.1015625 0.06510417 6.15234375 0.09765625 C6.15234375 0.75765625 6.15234375 1.41765625 6.15234375 2.09765625 C3.23751597 2.90733063 1.69121158 3.31611618 -1.16015625 2.16015625 C-1.71703125 1.80953125 -2.27390625 1.45890625 -2.84765625 1.09765625 C-1.84765625 0.09765625 -1.84765625 0.09765625 0 0 Z " fill="#89A8D3" transform="translate(137.84765625,249.90234375)"/>
<path d="M0 0 C0.66 0.99 1.32 1.98 2 3 C1.67 3.99 1.34 4.98 1 6 C-1.0625 6.6875 -1.0625 6.6875 -3 7 C-1.125 1.125 -1.125 1.125 0 0 Z " fill="#EAA95C" transform="translate(90,161)"/>
<path d="M0 0 C2.64 0.33 5.28 0.66 8 1 C6 3 6 3 2.375 3.125 C1.26125 3.08375 0.1475 3.0425 -1 3 C-0.67 2.01 -0.34 1.02 0 0 Z " fill="#738C97" transform="translate(379,389)"/>
<path d="M0 0 C0.99 0.33 1.98 0.66 3 1 C3 2.98 3 4.96 3 7 C2.01 7 1.02 7 0 7 C0 4.69 0 2.38 0 0 Z " fill="#365164" transform="translate(94,330)"/>
<path d="M0 0 C2.96404505 2.80804268 5.44499019 5.18315774 7 9 C2.97449681 7.6581656 2.11714364 5.5772427 0 2 C0 1.34 0 0.68 0 0 Z " fill="#8FC3D9" transform="translate(418,276)"/>
<path d="M0 0 C1.98 0.66 3.96 1.32 6 2 C6 2.99 6 3.98 6 5 C3.5625 4.1875 3.5625 4.1875 1 3 C0.67 2.01 0.34 1.02 0 0 Z " fill="#68B4D1" transform="translate(412,273)"/>
<path d="M0 0 C-5.41538462 3.07692308 -5.41538462 3.07692308 -8.375 2.6875 C-9.179375 2.3471875 -9.179375 2.3471875 -10 2 C-3.375 -1.125 -3.375 -1.125 0 0 Z " fill="#D5B0B1" transform="translate(144,245)"/>
</svg>
